<svg width="87" height="92" viewBox="0 0 87 92" fill="none" xmlns="http://www.w3.org/2000/svg">
<path d="M66.2109 22.1875C61.6992 22.1875 57.9738 26.0354 57.9738 30.618C57.9738 30.8951 57.9932 31.1723 58.0254 31.443C55.241 31.6943 53.0625 34.2789 53.0625 37.1406C53.0625 40.1699 55.5053 42.8125 58.5152 42.8125H75.1313C78.8889 42.8125 81.9375 39.6285 81.9375 35.8516C81.9375 32.0746 78.8889 28.8391 75.1313 28.8391C74.983 28.8391 74.8219 28.8262 74.6672 28.8262C74.5318 28.8262 74.3965 28.8262 74.274 28.8326C73.5135 25.3844 70.7227 22.1875 66.2109 22.1875Z" fill="#BDBDBD"/>
<path d="M15.4531 13.4375C13.5391 13.4375 11.9586 14.9533 11.9586 16.7586C11.9586 16.8678 11.9668 16.977 11.9805 17.0836C10.7992 17.1826 9.875 18.2008 9.875 19.3281C9.875 20.5215 10.9113 21.5625 12.1883 21.5625H19.2375C20.8316 21.5625 22.125 20.3082 22.125 18.8203C22.125 17.3324 20.8316 16.0578 19.2375 16.0578C19.1746 16.0578 19.1063 16.0527 19.0406 16.0527C18.9832 16.0527 18.9258 16.0527 18.8738 16.0553C18.5512 14.6969 17.3672 13.4375 15.4531 13.4375Z" fill="#BDBDBD"/>
<path d="M8.77643 8.66018C9.21728 8.86242 9.44944 9.35187 9.32714 9.82124C8.72186 12.1442 8.28644 15.3849 9.14168 18.9737L9.14168 18.9738C10.5025 24.6844 14.4927 28.5718 18.3493 31.0882C22.2022 33.6022 25.8159 34.6761 26.2074 34.7867C26.7185 34.9309 27.0277 35.4495 26.9116 35.9677C26.7954 36.4859 26.2945 36.823 25.7707 36.7353C24.7987 36.5727 23.4566 36.3992 21.8456 36.3508L8.77643 8.66018ZM8.77643 8.66018C8.33557 8.45793 7.81315 8.6012 7.53714 9.00005M8.77643 8.66018L7.53714 9.00005M7.53714 9.00005C5.72898 11.613 3.0529 16.1963 1.75425 22.491C0.668182 27.7553 0.955672 32.2285 1.37812 35.1556C1.41659 35.4221 1.56093 35.6619 1.77847 35.8206M7.53714 9.00005L1.77847 35.8206M1.77847 35.8206C4.71409 37.9624 7.16927 38.4304 8.88253 38.448H8.88257M1.77847 35.8206L8.88257 38.448M8.88257 38.448C10.8089 38.4678 12.8282 37.9232 14.7168 37.4138M8.88257 38.448L14.7168 37.4138M14.7168 37.4138L14.7281 37.4108M14.7168 37.4138L14.7281 37.4108M14.7281 37.4108L14.7352 37.4089M14.7281 37.4108L14.7352 37.4089M14.7352 37.4089C16.6827 36.8837 18.5192 36.3884 20.2905 36.3455L14.7352 37.4089Z" fill="#EA9127" stroke="white" stroke-width="2" stroke-linejoin="round"/>
<path d="M7.35332 49.5475C14.8453 59.4805 25.9091 61.6132 28.7975 62.0804C29.117 62.1321 29.4417 62.026 29.669 61.7956C29.8963 61.5653 29.9981 61.2391 29.9422 60.9204C29.4812 58.2941 29.1121 54.5357 29.6414 50.0813C30.1733 45.605 31.4226 42.023 32.4918 39.5728C32.7023 39.0905 32.503 38.5275 32.0358 38.2852C26.8987 35.6201 22.8184 35.3193 19.9645 35.5916L20.0594 36.587L19.9645 35.5916C18.0702 35.7723 16.3178 36.2536 14.7078 36.6958C14.1013 36.8625 13.5149 37.0235 12.9489 37.1608C10.832 37.6744 8.79025 37.9313 6.37183 37.2744L6.37181 37.2743C4.96042 36.891 3.8733 36.3192 3.18464 35.9036C2.88233 35.7152 2.49574 35.6993 2.17406 35.8762C1.78823 36.0884 1.58658 36.5279 1.67743 36.9588C2.33065 40.0565 3.7938 44.8285 7.35332 49.5475ZM7.35332 49.5475L8.15168 48.9453M7.35332 49.5475L8.15168 48.9453M8.15168 48.9453C5.17919 45.0046 3.71583 41.0225 2.96322 38.0724L31.5753 39.1728C30.4773 41.6888 29.1945 45.3669 28.6484 49.9633C28.1714 53.9773 28.4049 57.4409 28.7891 60.0514C28.9079 60.0718 29.0174 60.09 29.1169 60.1061L28.9572 61.0933L27.9723 61.2661C27.9516 61.1485 27.9312 61.0287 27.9109 60.9069C24.0638 60.1569 14.6916 57.6161 8.15168 48.9453Z" fill="#EA9127" stroke="white" stroke-width="2" stroke-linejoin="round"/>
<path d="M9.97935 50.174C9.58801 50.1865 9.23999 50.4264 9.08889 50.7876C8.93779 51.1488 9.0114 51.565 9.27725 51.8524C10.0123 52.6473 10.8201 53.4395 11.7079 54.214L11.708 54.214C17.5129 59.2774 24.0727 61.2537 28.7848 62.0786C29.1032 62.1344 29.429 62.0328 29.6592 61.8058C29.8894 61.5789 29.9958 61.2547 29.9446 60.9355C29.247 56.5802 28.9524 50.4737 30.9577 43.7577L30.9577 43.7576C31.4084 42.248 31.9319 40.8533 32.4915 39.5739C32.6983 39.1011 32.5114 38.5486 32.06 38.2984C31.6086 38.0483 31.041 38.1828 30.7498 38.6088C29.2183 40.8492 25.474 45.6394 18.8274 48.3224L18.8274 48.3225C15.3666 49.7196 12.2179 50.1021 9.97935 50.174Z" fill="#903518" stroke="white" stroke-width="2" stroke-linejoin="round"/>
<path d="M9.06833 8.86327C8.85883 8.653 8.56674 8.54667 8.27109 8.57305C7.97543 8.59942 7.70678 8.75578 7.5378 8.99981C6.16398 10.9838 4.60907 13.6429 3.35693 16.9686C1.48552 21.9391 1.04954 26.3819 1.004 29.4231C0.997879 29.8315 1.24078 30.2026 1.61754 30.3605C1.99429 30.5183 2.42915 30.4311 2.71595 30.1402C3.36574 29.4812 4.01232 29.0743 4.57245 28.8129L4.57251 28.8129C6.78898 27.7782 9.31448 28.2627 11.4853 29.1792C13.0544 29.8416 14.3283 30.6847 14.9791 31.1535C15.1684 31.3004 15.3313 31.4217 15.4621 31.5174C15.901 31.8387 16.5162 31.7503 16.8469 31.3184C17.1775 30.8865 17.1023 30.2695 16.6775 29.9297C16.6081 29.8741 16.4374 29.74 16.1807 29.5542C14.3676 28.1421 10.0591 24.27 8.92162 17.9076L7.93723 18.0836L8.92162 17.9076C8.31087 14.4916 8.83579 11.6062 9.32405 9.83489C9.4195 9.48863 9.32191 9.11778 9.0684 8.86334L9.06833 8.86327Z" fill="#F6D365" stroke="white" stroke-width="2" stroke-linejoin="round"/>
<path d="M3.40597 36.0911C3.21614 35.8758 2.94298 35.7525 2.65598 35.7525H2.65591C2.35544 35.7525 2.07089 35.8876 1.88098 36.1205C1.69107 36.3533 1.61592 36.6592 1.67633 36.9536C2.11041 39.0687 2.92206 41.9176 4.52135 45.0234L5.4104 44.5656L4.52135 45.0234C6.06796 48.0269 7.8438 50.2852 9.2735 51.8481C9.47071 52.0637 9.75233 52.1823 10.0443 52.1726C12.5409 52.0902 17.164 51.606 22.1752 48.9645C27.812 45.9933 30.9934 41.8457 32.407 39.728C32.6769 39.3237 32.6169 38.7838 32.2648 38.4486C31.9127 38.1134 31.3705 38.0799 30.9799 38.3694C29.9252 39.1509 21.9782 44.8114 12.6198 42.058C7.85515 40.6561 4.82145 37.6961 3.40597 36.0911Z" fill="#CC5520" stroke="white" stroke-width="2" stroke-linejoin="round"/>
<path d="M27.6898 1.1634C28.745 1.84212 30.2396 2.98051 31.617 4.75889L27.6898 1.1634ZM27.6898 1.1634C27.5296 1.05851 27.3399 1 27.142 1H27.1419C26.767 1 26.4299 1.20876 26.259 1.53032C25.6489 2.63581 24.8506 4.40514 24.521 6.7109L24.521 6.71093C24.2646 8.50478 24.3757 10.0373 24.5435 11.1361C24.5887 11.432 24.764 11.6921 25.0214 11.8449C25.2787 11.9978 25.591 12.0273 25.8724 11.9254C26.9039 11.5521 28.0448 11.189 29.2886 10.8658C30.6415 10.5143 31.9124 10.2627 33.0765 10.0826C33.3755 10.0363 33.6374 9.85726 33.789 9.59551C33.9406 9.33375 33.9655 9.01745 33.8569 8.73515C33.4469 7.67006 32.7637 6.23939 31.617 4.75895L27.6898 1.1634Z" fill="#EA9127" stroke="white" stroke-width="2" stroke-linejoin="round"/>
<path d="M54.6645 7.1912C54.436 5.1241 53.8188 3.50569 53.3276 2.4655C53.1624 2.11567 52.8102 1.89252 52.4234 1.89252H52.4233C52.2576 1.89252 52.0944 1.93371 51.9485 2.0124C50.9191 2.56772 49.4642 3.50291 48.0426 5.00894C46.5974 6.54001 45.7411 8.07349 45.2469 9.14405C45.1206 9.41773 45.1245 9.73379 45.2575 10.0043C45.3904 10.2748 45.6383 10.4709 45.9322 10.538C47.0424 10.7916 48.2488 11.1188 49.5265 11.5438L49.5265 11.5438C50.7973 11.9664 51.9536 12.4242 52.9902 12.8835C53.2628 13.0043 53.5751 12.9971 53.8419 12.864C54.1086 12.7308 54.3021 12.4855 54.3694 12.1951C54.6322 11.0617 54.8988 9.30987 54.6645 7.1912ZM54.6645 7.1912L53.6705 7.30107M54.6645 7.1912C54.6645 7.19119 54.6645 7.19118 54.6645 7.19117L53.6705 7.30107M53.6705 7.30107C53.8285 8.7298 53.7423 9.97986 53.5898 10.9624C53.6605 10.9932 53.7307 11.0241 53.8003 11.055L53.3953 11.9692L52.4211 11.7434C52.4341 11.6871 52.4472 11.629 52.4602 11.5692C51.649 11.2344 50.7757 10.9054 49.8421 10.5949C48.9031 10.2826 48.0016 10.0217 47.147 9.80325C47.1177 9.86442 47.0897 9.92411 47.0628 9.98223L46.1549 9.56314L46.3776 8.58825C46.4577 8.60656 46.5383 8.62523 46.6194 8.64428C47.1012 7.77024 47.7912 6.73217 48.7698 5.69537C49.7373 4.67043 50.7213 3.92809 51.5566 3.39963C51.544 3.37251 51.5315 3.34581 51.5191 3.31954L52.4229 2.89276C52.423 2.89268 52.4232 2.8926 52.4233 2.89252H52.4234C52.4235 2.89283 52.4237 2.89314 52.4238 2.89345L52.8981 3.77264C52.872 3.78667 52.8457 3.80097 52.8191 3.81557C53.1715 4.72724 53.5162 5.90443 53.6705 7.30107Z" fill="#EA9127" stroke="white" stroke-width="2" stroke-linejoin="round"/>
<path d="M24.4679 12.3301C24.5023 11.9667 24.7321 11.6509 25.0673 11.5063C26.5473 10.8678 28.3361 10.226 30.4061 9.73201C31.9262 9.36924 33.3372 9.14847 34.598 9.01767C35.0762 8.96805 35.5221 9.26584 35.6595 9.72663C35.9858 10.8211 36.2828 12.4626 35.7472 14.2243C35.1699 16.123 33.853 17.2838 32.7548 18.2519C32.5355 18.4452 32.3249 18.6309 32.1307 18.8131L31.4464 18.084L32.1307 18.8131C30.7885 20.0728 29.0971 22.0854 27.7209 25.3421C27.5579 25.7278 27.1718 25.9711 26.7534 25.9517C26.3351 25.9323 25.9731 25.6543 25.8465 25.2551C25.2921 23.507 24.7501 21.2859 24.487 18.679L24.4679 12.3301ZM24.4679 12.3301C24.3021 14.0775 24.24 16.2331 24.487 18.6789L24.4679 12.3301Z" fill="#E39334" stroke="white" stroke-width="2" stroke-linejoin="round"/>
<path d="M41.5019 8.94356C39.3924 8.7558 37.4945 8.78085 35.876 8.89876C35.5175 8.91846 35.1925 9.13029 35.0322 9.45942L35.0321 9.45955C34.9187 9.69239 34.9016 9.95625 34.9769 10.1966C35.1452 10.7656 35.3437 11.6977 35.2385 12.8407L35.2385 12.8408C35.1955 13.3093 35.0963 14.256 34.5624 15.2656L34.5623 15.2657C34.2427 15.8701 33.9292 16.1959 33.4127 16.6706C33.345 16.7328 33.2743 16.7971 33.2003 16.8644C32.6837 17.3343 32.0105 17.9467 31.131 18.9611L31.131 18.9611C30.6178 19.553 30.2278 20.0583 29.9879 20.3789C29.8105 20.616 29.7473 20.9194 29.8152 21.2076C29.8832 21.4958 30.0753 21.739 30.34 21.8718L38.7346 26.0851C39.0241 26.2304 39.366 26.2265 39.6521 26.0747C40.3627 25.6974 42.3462 24.5992 44.3001 22.7402C46.2525 20.8825 48.2316 18.2107 48.8209 14.6863C48.9909 13.6696 49.0671 12.4489 48.9064 11.0524C48.8604 10.6528 48.5795 10.3197 48.1934 10.2069C46.3718 9.67473 44.1154 9.1762 41.502 8.94356L41.5019 8.94356Z" fill="#F6D365" stroke="white" stroke-width="2" stroke-linejoin="round"/>
<path d="M54.4428 13.1274C54.3982 12.7474 54.1451 12.4402 53.8087 12.3107L49.6133 10.5899C49.2956 10.4595 48.9331 10.5014 48.6535 10.7007C48.3738 10.9001 48.2159 11.229 48.2355 11.5719C48.3066 12.8214 48.2622 15.0414 47.2282 17.5106L47.2281 17.5106C46.5209 19.1998 45.5906 20.4328 44.8753 21.2333C44.5692 21.576 44.536 22.0831 44.7948 22.4628C45.0535 22.8425 45.5377 22.9969 45.9686 22.8373C46.1221 22.7804 47.6319 22.2632 49.0268 23.1707C50.4873 24.1209 50.5733 25.8258 50.5765 25.9631C50.5878 26.4341 50.9262 26.8333 51.389 26.9216C51.8517 27.0098 52.3133 26.7631 52.4971 26.3293C53.5313 23.8878 54.5831 20.4481 54.6162 16.2935C54.6252 15.1639 54.5579 14.1052 54.4428 13.1274Z" fill="#EA9127" stroke="white" stroke-width="2" stroke-linejoin="round"/>
<path d="M27.4525 25.3213C28.0242 25.5112 28.7898 25.7395 29.707 25.9396L27.4525 25.3213ZM27.4525 25.3213C27.148 25.2143 26.7997 25.2578 26.5252 25.4612C26.1234 25.7589 26.0033 26.3077 26.2441 26.7461L32.1145 37.4331C32.2281 37.6398 32.4111 37.7998 32.6312 37.8846C33.9805 38.405 36.0436 39.0223 38.6219 39.1295L38.622 39.1295C41.3419 39.2424 43.5494 38.7423 44.9655 38.3042C45.1919 38.2342 45.386 38.086 45.5133 37.8862L52.072 27.5911C52.2939 27.2429 52.2789 26.7942 52.0344 26.4616C51.7899 26.1289 51.3661 25.9807 50.9676 26.0885C50.2866 26.2726 49.3932 26.4792 48.334 26.631L48.334 26.631C47.4453 26.7584 46.3505 26.8599 44.9015 26.8534C43.4733 26.847 42.7413 26.7406 42.018 26.6236C41.9669 26.6154 41.9158 26.607 41.8644 26.5986C41.1435 26.4812 40.3669 26.3546 39.0053 26.3093L39.0053 26.3093C37.7691 26.2682 37.0953 26.3288 36.4529 26.3866C36.4117 26.3903 36.3707 26.394 36.3297 26.3976C35.6934 26.4543 35.0258 26.5048 33.6581 26.4377L33.6581 26.4377C32.0167 26.3572 30.7955 26.177 29.7071 25.9396L27.4525 25.3213Z" fill="#F6D365" stroke="white" stroke-width="2" stroke-linejoin="round"/>
<path d="M33.7225 38.4742C33.5426 38.2581 33.28 38.1276 32.9991 38.1149C32.7182 38.1022 32.4449 38.2084 32.2462 38.4074L32.2461 38.4074C32.1584 38.4953 32.0878 38.5987 32.038 38.7124C31.3139 40.3636 30.6312 42.2216 30.0723 44.2804C28.1877 51.2239 28.5417 57.3963 29.2222 61.6581C29.2967 62.1246 29.6875 62.4754 30.1593 62.4992C30.6311 62.523 31.0552 62.2134 31.1763 61.7568C31.8025 59.3954 32.7185 56.6337 34.0842 53.6583L33.1754 53.2411L34.0842 53.6583C35.5692 50.4229 37.2138 47.7458 38.7106 45.6254C38.9716 45.2557 38.9518 44.7568 38.6623 44.409L33.7225 38.4742Z" fill="#F6D365" stroke="white" stroke-width="2" stroke-linejoin="round"/>
<path d="M42.7259 39.7052C40.5983 41.9146 38.0654 44.9605 35.7473 48.9253C33.078 53.4908 31.5881 57.7446 30.7257 60.9743C30.653 61.2466 30.6985 61.5369 30.8511 61.7738C31.0037 62.0107 31.2492 62.1723 31.5272 62.2187C34.731 62.7534 37.3661 62.694 39.1792 62.5349C42.175 62.2721 43.5426 61.6825 44.5817 60.9396L44.5817 60.9395L44.5937 60.9309C44.98 60.6548 46.2637 59.7372 47.0025 58.2039C47.8462 56.4528 47.5599 54.7886 47.0345 53.0575C46.8629 52.4921 46.6681 51.9219 46.4635 51.3233C46.0208 50.028 45.5327 48.5999 45.1368 46.7997L45.1368 46.7996C44.8134 45.3289 44.4561 43.1557 44.453 40.4042C44.4547 40.2682 44.4286 40.1307 44.3733 40.0006C44.2163 39.6315 43.8541 39.3918 43.453 39.3918H43.4529C43.1876 39.3918 42.9331 39.4973 42.7456 39.685C42.7389 39.6917 42.7324 39.6984 42.7259 39.7052Z" fill="#903518" stroke="white" stroke-width="2" stroke-linejoin="round"/>
<path d="M38.5797 25.864C38.5317 25.8152 38.4787 25.7715 38.4218 25.7335C37.6897 25.2459 36.6944 24.6088 35.4794 23.9065L35.4794 23.9065C34.8273 23.5297 34.3144 23.2511 33.766 22.9536L33.7658 22.9535C32.949 22.5106 31.8814 21.9453 30.6077 21.3078C30.3703 21.1891 30.0955 21.1695 29.8438 21.2535C29.592 21.3374 29.384 21.518 29.2654 21.7554C29.051 22.1849 28.6967 23.0378 28.7024 24.1653C28.7075 25.1543 28.9874 25.9173 29.1799 26.3412C29.3476 26.7107 29.7221 26.9422 30.1277 26.9271C31.073 26.8918 32.0996 26.8956 33.1955 26.9605C34.8574 27.0589 36.3575 27.2788 37.6678 27.5457C38.0989 27.6335 38.5367 27.4293 38.7465 27.0425C38.9562 26.6558 38.8885 26.1774 38.5798 25.864L38.5797 25.864Z" fill="#532322" stroke="white" stroke-width="2" stroke-linejoin="round"/>
<path d="M39.3475 26.9703C39.1944 26.5168 39.3842 26.0184 39.8002 25.7816C41.1954 24.987 42.7261 24.1878 44.3917 23.4172L39.3475 26.9703ZM39.3475 26.9703C39.5006 27.4239 39.9535 27.7053 40.4279 27.6417M39.3475 26.9703L40.4279 27.6417M40.4279 27.6417C41.7118 27.4695 43.1829 27.3556 44.807 27.374L44.8071 27.374C45.9187 27.3866 46.9513 27.4596 47.8931 27.5669C48.2896 27.612 48.675 27.4172 48.8736 27.0711C49.1009 26.6752 49.4326 25.9781 49.5333 25.0482L49.5334 25.0481C49.6623 23.8573 49.3436 22.9259 49.1574 22.4812C48.9479 21.9806 48.3775 21.7385 47.8719 21.9355M40.4279 27.6417L47.8719 21.9355M47.8719 21.9355C46.755 22.3708 45.5915 22.862 44.3917 23.4172L47.8719 21.9355Z" fill="#532322" stroke="white" stroke-width="2" stroke-linejoin="round"/>
<path d="M34.7482 37.8482C34.3307 37.7414 33.8917 37.914 33.6588 38.2766C33.4259 38.6391 33.4515 39.1101 33.7223 39.4454L37.7635 44.4479C37.9453 44.6729 38.2156 44.8081 38.5046 44.8188C38.7937 44.8294 39.0732 44.7143 39.271 44.5033L43.6967 39.7812C43.9923 39.4658 44.0518 38.9961 43.8441 38.6169C43.6364 38.2378 43.2086 38.035 42.7836 38.1143C41.71 38.3146 40.3314 38.4741 38.731 38.4193L38.7309 38.4193C37.1493 38.3652 35.7986 38.1171 34.7482 37.8482Z" fill="#532322" stroke="white" stroke-width="2" stroke-linejoin="round"/>
<mask id="path-19-outside-1_1_266" maskUnits="userSpaceOnUse" x="38.2643" y="20.8591" width="13" height="8" fill="black">
<rect fill="white" x="38.2643" y="20.8591" width="13" height="8"/>
<path d="M40.2643 26.6569C41.015 26.2314 42.0347 25.6779 43.2742 25.076C43.9386 24.7533 44.4594 24.5172 45.0273 24.2602C45.8658 23.8807 46.9613 23.3983 48.2656 22.8591C48.4146 23.2204 48.6518 23.9329 48.5812 24.845C48.5194 25.6452 48.2481 26.2473 48.0672 26.58C47.0974 26.4736 46.041 26.4013 44.9086 26.3868C43.1916 26.3648 41.6321 26.4797 40.2644 26.657L40.2643 26.6569Z"/>
</mask>
<path d="M40.2643 26.6569C41.015 26.2314 42.0347 25.6779 43.2742 25.076C43.9386 24.7533 44.4594 24.5172 45.0273 24.2602C45.8658 23.8807 46.9613 23.3983 48.2656 22.8591C48.4146 23.2204 48.6518 23.9329 48.5812 24.845C48.5194 25.6452 48.2481 26.2473 48.0672 26.58C47.0974 26.4736 46.041 26.4013 44.9086 26.3868C43.1916 26.3648 41.6321 26.4797 40.2644 26.657L40.2643 26.6569Z" fill="#532322"/>
<path d="M40.2643 26.6569L39.2782 24.9169C38.6354 25.2812 38.2458 25.9702 38.265 26.7088C38.2842 27.4475 38.709 28.1153 39.3699 28.4457L40.2643 26.6569ZM43.2742 25.076L44.1478 26.8751L44.1479 26.8751L43.2742 25.076ZM45.0273 24.2602L45.8518 26.0824L45.852 26.0823L45.0273 24.2602ZM48.2656 22.8591L50.1145 22.0966C49.9122 21.6059 49.5231 21.2158 49.033 21.0122C48.5429 20.8085 47.992 20.808 47.5015 21.0108L48.2656 22.8591ZM48.5812 24.845L46.5872 24.6908L46.5872 24.691L48.5812 24.845ZM48.0672 26.58L47.849 28.5681C48.656 28.6566 49.4364 28.2486 49.8242 27.5355L48.0672 26.58ZM44.9086 26.3868L44.9343 24.387L44.9342 24.387L44.9086 26.3868ZM40.2644 26.657L39.37 28.4458C39.7259 28.6238 40.1269 28.6915 40.5215 28.6404L40.2644 26.657ZM41.2504 28.3969C41.9723 27.9877 42.9539 27.4548 44.1478 26.8751L42.4006 23.2769C41.1154 23.9009 40.0577 24.4751 39.2782 24.9169L41.2504 28.3969ZM44.1479 26.8751C44.7859 26.5652 45.2853 26.3387 45.8518 26.0824L44.2029 22.4381C43.6335 22.6957 43.0913 22.9414 42.4005 23.2769L44.1479 26.8751ZM45.852 26.0823C46.6742 25.7101 47.7492 25.2367 49.0297 24.7074L47.5015 21.0108C46.1734 21.5598 45.0574 22.0513 44.2026 22.4382L45.852 26.0823ZM46.4167 23.6216C46.4976 23.818 46.6249 24.203 46.5872 24.6908L50.5753 24.9992C50.6786 23.6628 50.3316 22.6228 50.1145 22.0966L46.4167 23.6216ZM46.5872 24.691C46.5541 25.1193 46.4083 25.4441 46.3102 25.6245L49.8242 27.5355C50.0879 27.0505 50.4847 26.1711 50.5753 24.9991L46.5872 24.691ZM48.2853 24.5919C47.2566 24.4791 46.1358 24.4024 44.9343 24.387L44.8829 28.3866C45.9462 28.4003 46.9382 28.4681 47.849 28.5681L48.2853 24.5919ZM44.9342 24.387C43.1124 24.3636 41.458 24.4855 40.0073 24.6736L40.5215 28.6404C41.8061 28.4739 43.2707 28.366 44.883 28.3866L44.9342 24.387ZM41.1589 24.8681L41.1587 24.868L39.3699 28.4457L39.37 28.4458L41.1589 24.8681Z" fill="white" mask="url(#path-19-outside-1_1_266)"/>
<path d="M26.0918 25.6592C25.9743 25.5415 25.8881 25.3964 25.8408 25.237C25.0336 22.5154 24.3729 19.1569 24.3367 15.304C24.327 14.2674 24.3632 13.276 24.4335 12.3343C24.4614 11.9605 24.696 11.6336 25.0412 11.4876C26.4861 10.8767 28.2157 10.2639 30.2054 9.78056L30.4414 10.7523L30.2054 9.78056C31.8023 9.39263 33.2809 9.15743 34.5954 9.01791C34.9538 8.97988 35.3049 9.13759 35.5145 9.43073C35.724 9.72387 35.7597 10.1071 35.6078 10.4339C35.3228 11.047 34.8304 11.9907 34.0425 13.009C32.8912 14.4974 31.7394 15.3296 30.7368 15.9805C30.5694 16.0891 30.4111 16.1902 30.2609 16.2861C29.483 16.7826 28.9234 17.1398 28.4527 17.6932L26.0918 25.6592ZM26.0918 25.6592L26.0918 25.6592C26.4062 25.9741 26.8907 26.0435 27.2808 25.8294M26.0918 25.6592L27.2808 25.8294M27.2808 25.8294C27.6708 25.6152 27.8725 25.1692 27.7756 24.7349M27.2808 25.8294L27.7756 24.7349M27.7756 24.7349C26.816 20.4351 27.7034 18.5745 28.4527 17.6933L27.7756 24.7349Z" fill="#CC5520" stroke="white" stroke-width="2" stroke-linejoin="round"/>
<path d="M41.818 8.97323C39.5616 8.75167 37.5462 8.77608 35.8576 8.90001C35.5612 8.92177 35.2898 9.07424 35.117 9.31607C34.9443 9.55791 34.8881 9.86406 34.9636 10.1515C35.3054 11.4523 36.4188 14.9876 39.8312 17.7224C42.0257 19.4812 44.2557 20.1741 45.5582 20.4693C45.8548 20.5365 46.1658 20.4651 46.4033 20.2754C46.4816 20.2128 46.5491 20.1397 46.6045 20.0588C47.322 19.0299 48.3871 17.2019 48.8093 14.6978L47.8233 14.5315L48.8094 14.6978C49.0519 13.2596 49.0138 12.0048 48.9062 11.0542C48.8609 10.6539 48.5798 10.3198 48.1931 10.2068C46.4508 9.69767 44.3024 9.21715 41.818 8.97323ZM41.818 8.97323L41.7203 9.96845M41.818 8.97323L41.7203 9.96845M41.7203 9.96845C39.9663 9.79622 38.3623 9.77701 36.9508 9.83791L47.9126 11.1667C46.2201 10.6721 44.1334 10.2054 41.7203 9.96845Z" fill="#CC5520" stroke="white" stroke-width="2" stroke-linejoin="round"/>
<path d="M48.4041 10.9558C48.6693 10.5628 49.1739 10.41 49.6126 10.5899L53.8284 12.3191C54.1656 12.4574 54.4009 12.7682 54.4424 13.1302C54.6119 14.6065 54.6899 16.3982 54.5066 18.4177C54.2042 21.7513 53.3041 24.4494 52.4943 26.3341C52.2803 26.8323 51.7082 27.0691 51.2046 26.868C50.7011 26.6669 50.4495 26.1011 50.6376 25.5925C50.7408 25.3133 51.2159 23.9762 51.3373 22.3088C51.4594 20.6326 51.2159 18.7556 50.0323 17.2547C49.6929 16.8244 49.2005 16.3279 48.479 15.8785C48.1292 15.6607 47.9489 15.2506 48.0248 14.8456C48.0922 14.4857 48.1497 14.0984 48.1906 13.6859L48.4041 10.9558ZM48.4041 10.9558C48.276 11.1458 48.2208 11.3665 48.2354 11.5823M48.4041 10.9558L48.2354 11.5823M48.2354 11.5823C48.2702 12.2045 48.2673 12.9121 48.1907 13.6858L48.2354 11.5823Z" fill="#CC5520" stroke="white" stroke-width="2" stroke-linejoin="round"/>
<path d="M45.2471 9.14363C45.0407 9.59032 45.1899 10.1208 45.599 10.3944C46.008 10.6679 46.5553 10.6033 46.8893 10.2419C47.8042 9.25185 49.2125 8.93051 50.4072 9.39835C51.4962 9.82487 52.2765 10.855 52.4003 12.0705C52.4499 12.5574 52.8446 12.9369 53.3331 12.9672C53.8216 12.9976 54.2603 12.67 54.3698 12.193C54.6568 10.9433 54.9469 8.95614 54.582 6.57154L54.582 6.57147C54.3176 4.84489 53.793 3.45361 53.3279 2.46635C53.2108 2.21776 52.9966 2.02832 52.7355 1.94251C52.4745 1.85671 52.1896 1.88212 51.9479 2.01276C50.8532 2.60431 49.2731 3.6271 47.7673 5.30862L47.7672 5.30863C46.5061 6.71701 45.7248 8.10998 45.2471 9.14363Z" fill="#CC5520" stroke="white" stroke-width="2" stroke-linejoin="round"/>
<path d="M25.5324 11.9852C25.0384 11.9852 24.6184 11.6245 24.5439 11.1361C24.374 10.0235 24.2584 8.44071 24.5405 6.5815M25.5324 11.9852L24.5405 6.5815M25.5324 11.9852H25.5325C26.0318 11.9852 26.4546 11.6168 26.523 11.1221C26.6911 9.90654 27.5103 8.91323 28.5977 8.54526C29.8342 8.12689 31.2765 8.56654 32.1246 9.69514C32.4245 10.0941 32.9726 10.2109 33.4091 9.96884C33.8456 9.72673 34.0367 9.19986 33.8569 8.73423C33.3915 7.52858 32.544 5.76951 31.0017 4.01284L31.0017 4.01284C29.8302 2.67843 28.6244 1.76328 27.6827 1.15854C27.45 1.00913 27.1658 0.96274 26.8977 1.03038M25.5324 11.9852L26.8977 1.03038M24.5405 6.5815C24.8827 4.32637 25.6683 2.59771 26.2675 1.51557M24.5405 6.5815L26.2675 1.51557M26.8977 1.03038C26.6296 1.09802 26.4015 1.27366 26.2675 1.51557M26.8977 1.03038L26.2675 1.51557" fill="#CC5520" stroke="white" stroke-width="2" stroke-linejoin="round"/>
<path d="M30.7313 60.9539C30.5901 61.4416 30.8367 61.9577 31.3049 62.1542C31.7731 62.3506 32.3142 62.1651 32.5632 61.7227C33.2959 60.4213 34.6802 58.1658 36.6528 56.1738C38.6305 54.1767 41.1162 52.5275 44.0538 52.2631L44.0539 52.263C44.4627 52.2262 44.888 52.2154 45.3298 52.2364C45.6629 52.2521 45.9818 52.1009 46.1804 51.8331C46.379 51.5653 46.431 51.2161 46.3192 50.902C46.0083 50.029 45.7105 49.081 45.4437 48.0615L45.4437 48.0614C45.2852 47.4558 45.1492 46.8681 45.0321 46.301C44.9695 45.9981 44.7704 45.7411 44.4926 45.6051C44.2149 45.469 43.8898 45.4692 43.6122 45.6054C41.7107 46.5386 38.4825 48.4253 35.5499 51.9201C35.5479 51.9225 35.5459 51.9249 35.5439 51.9274C32.6164 55.4187 31.32 58.9209 30.7313 60.9539Z" fill="#CC5520" stroke="white" stroke-width="2" stroke-linejoin="round"/>
<path d="M29.7279 45.6466C28.9614 49.0788 28.4404 53.3224 28.8037 58.1317L28.8037 58.1318C28.8972 59.3679 29.0417 60.5456 29.2226 61.6608C29.2977 62.1244 29.6854 62.4732 30.1543 62.4992C30.6232 62.5252 31.0471 62.2214 31.173 61.769C31.449 60.7778 31.763 59.7483 32.121 58.6864L29.7279 45.6466ZM29.7279 45.6466C29.8128 45.2322 30.1547 44.9066 30.5894 44.8549C31.0925 44.7951 31.5608 45.1209 31.6796 45.6134L33.7047 54.0058C33.7547 54.2131 33.7372 54.4308 33.6547 54.6274C33.1274 55.8839 32.6094 57.2379 32.121 58.6864L29.7279 45.6466Z" fill="#CC5520" stroke="white" stroke-width="2" stroke-linejoin="round"/>
<path d="M30.6719 28.8659C29.9637 28.3731 28.9426 27.4885 28.0428 25.8666L27.9989 25.7867L27.997 25.7832C27.7315 25.2998 27.1247 25.1227 26.6408 25.3872C26.1569 25.6518 25.9786 26.2582 26.2422 26.7426C26.2587 26.773 26.2752 26.8031 26.2918 26.8331L32.1094 37.4238C32.2194 37.629 32.4006 37.7957 32.6311 37.8846C33.9983 38.4119 36.133 39.0518 38.8116 39.136C41.4412 39.2186 43.5774 38.7337 44.9655 38.3042C45.1919 38.2342 45.3861 38.0859 45.5134 37.886L52.0632 27.6002C52.3069 27.2175 52.2624 26.7186 51.9547 26.3851C51.647 26.0516 51.1534 25.967 50.7522 26.1791C49.8871 26.6365 48.3912 27.3802 46.4522 28.0884L46.4522 28.0884C44.4664 28.8137 41.6649 29.8315 38.7437 30.244C35.8133 30.6578 32.9303 30.4375 30.6719 28.8659Z" fill="#EA9127" stroke="white" stroke-width="2" stroke-linejoin="round"/>
<path d="M34.9769 10.197C34.8641 9.83735 34.9632 9.44478 35.2332 9.18167L35.2332 9.18161C35.4536 8.96689 35.7604 8.86553 36.0653 8.9068C36.3702 8.94808 36.6391 9.12738 36.7944 9.39294C37.4733 10.5538 38.357 11.8508 39.5057 13.1687L39.5057 13.1687C41.8533 15.8625 44.371 17.569 46.2649 18.62C46.5186 18.7608 46.6986 19.0048 46.7583 19.2888C46.8179 19.5728 46.7513 19.8687 46.5757 20.0996L45.7215 21.2231C45.615 21.3632 45.4734 21.4727 45.3111 21.5405C43.137 22.4491 39.0892 23.7472 34.2167 22.9462C32.7781 22.7097 31.5096 22.3299 30.4276 21.9111C30.1354 21.798 29.9131 21.5545 29.827 21.2532C29.7409 20.9519 29.801 20.6277 29.9894 20.3773C30.9356 19.1194 31.8141 18.1875 32.4589 17.5555L32.4589 17.5555C32.8202 17.2014 33.098 16.9431 33.3245 16.7326C33.8323 16.2607 34.0818 16.0287 34.4337 15.4954L34.9769 10.197ZM34.9769 10.197C35.1695 10.8111 35.4071 11.8677 35.2271 13.1522L35.2271 13.1522M34.9769 10.197L35.2271 13.1522M35.2271 13.1522C35.2248 13.1689 35.2224 13.1861 35.2199 13.2037M35.2271 13.1522L35.2199 13.2037M35.2199 13.2037C35.1502 13.7056 35.0263 14.5974 34.4337 15.4954L35.2199 13.2037Z" fill="#EA9127" stroke="white" stroke-width="2" stroke-linejoin="round"/>
<path d="M30.1521 45.016C30.4246 44.8341 30.7689 44.7972 31.0737 44.9172C31.269 44.9941 31.9768 45.2623 32.8802 45.3511C33.7856 45.4401 34.8061 45.3416 35.7066 44.7755M30.1521 45.016L35.7066 44.7755M30.1521 45.016C29.8797 45.1978 29.7136 45.5016 29.7075 45.8292M30.1521 45.016L29.7075 45.8292M35.7066 44.7755L36.2389 45.622L36.6777 43.9014M35.7066 44.7755C36.1108 44.5213 36.4282 44.2132 36.6777 43.9014M29.7075 45.8292C29.6882 46.8748 29.6891 47.9483 29.7139 49.0487C29.7845 52.1912 30.0391 55.1327 30.4066 57.848C30.4686 58.3068 30.8375 58.6629 31.2982 58.7089M29.7075 45.8292L31.2982 58.7089M31.2982 58.7089C31.7589 58.7549 32.1909 58.4786 32.3425 58.0411M31.2982 58.7089L32.3425 58.0411M32.3425 58.0411C33.2941 55.2936 34.6314 52.1981 36.5383 48.977C37.2511 47.773 37.9811 46.657 38.71 45.6261C38.9714 45.2563 38.9517 44.7571 38.6621 44.4091M32.3425 58.0411L38.6621 44.4091M38.6621 44.4091L38.2271 43.8864C38.0349 43.6555 37.7492 43.5233 37.4488 43.5262M38.6621 44.4091L37.4488 43.5262M37.4488 43.5262C37.1485 43.5291 36.8653 43.6668 36.6777 43.9014M37.4488 43.5262L36.6777 43.9014" fill="#EA9127" stroke="white" stroke-width="2" stroke-linejoin="round"/>
<path d="M37.3367 53.0747C39.9339 50.0481 42.7319 48.3148 44.5131 47.3912C44.908 47.1863 45.1202 46.7452 45.0336 46.3088C44.8057 45.1601 44.62 43.877 44.524 42.4762L44.524 42.4762C44.4741 41.7489 44.4528 41.053 44.453 40.3922C44.4532 39.9843 44.2055 39.6171 43.8272 39.4645C43.4489 39.3118 43.0158 39.4043 42.7328 39.6981C40.8626 41.6396 38.8011 44.0992 36.8482 47.1325L37.689 47.6739L36.8482 47.1325C33.5094 52.3184 31.723 57.2632 30.7261 60.9727C30.7034 61.0573 30.6918 61.1446 30.6918 61.2322V61.2323C30.6918 61.7261 31.0523 62.146 31.5403 62.2208C32.0284 62.2956 32.4981 62.0029 32.6459 61.5318C33.2609 59.5725 34.5591 56.3118 37.3367 53.0747ZM37.3367 53.0747L36.5778 52.4235M37.3367 53.0747L36.5778 52.4235M36.5778 52.4235C36.1566 52.9145 35.768 53.4059 35.4095 53.8936L42.4697 41.4437C42.4582 41.0844 42.4529 40.7335 42.453 40.3915L43.453 40.3918L44.1732 41.0856C43.9465 41.321 43.7168 41.5643 43.4849 41.8156C43.4957 42.055 43.5094 42.2981 43.5263 42.5446C43.6255 43.9916 43.8174 45.317 44.0527 46.5034C42.1977 47.4654 39.2834 49.2705 36.5778 52.4235Z" fill="#EA9127" stroke="white" stroke-width="2" stroke-linejoin="round"/>
<path d="M26.2881 1.51165C25.9528 2.08958 25.6072 2.7796 25.3037 3.57944L26.2881 1.51165ZM26.2881 1.51165C26.4621 1.2006 26.7933 1 27.1609 1H27.1609C27.3624 1 27.5553 1.06063 27.7172 1.16899M26.2881 1.51165L27.7172 1.16899M27.7172 1.16899C28.2488 1.51832 28.8151 1.93397 29.3924 2.42784L27.7172 1.16899ZM26.4511 7.31336C26.4953 7.07009 26.6984 6.20275 27.398 5.7881L25.3037 3.5795C24.8069 4.8882 24.5787 6.07998 24.4734 7.02386C24.4136 7.55952 24.789 8.04621 25.3224 8.12427C25.8557 8.20234 26.3549 7.84369 26.4511 7.31336ZM27.398 5.78809C28.169 5.33113 29.533 5.47606 30.5286 6.61011C30.8806 7.01103 31.4853 7.06503 31.9028 6.73283C32.3202 6.40063 32.4034 5.79923 32.0917 5.36621C31.4481 4.47184 30.5694 3.43447 29.3925 2.4279L27.398 5.78809Z" fill="#903518" stroke="white" stroke-width="2" stroke-linejoin="round"/>
<path d="M52.4231 1.89252C52.2522 1.89252 52.0872 1.93617 51.9422 2.01577C51.3512 2.33418 50.7049 2.73186 50.0378 3.22907C48.8326 4.12739 47.9289 5.07541 47.2726 5.8826C46.9358 6.29678 46.9838 6.90243 47.3815 7.25848C47.7792 7.61454 48.3864 7.59545 48.761 7.21512C49.7857 6.17465 51.1364 6.11108 51.8823 6.61853L51.8823 6.61855C52.5984 7.10568 52.7237 8.0614 52.7422 8.27874C52.7876 8.81527 53.2497 9.21946 53.7876 9.19309C54.3254 9.16672 54.7457 8.71925 54.7385 8.18085C54.7258 7.23713 54.6077 5.99472 54.1878 4.6033L54.1878 4.60322C53.9349 3.76508 53.6246 3.04569 53.3208 2.45163C53.1555 2.11476 52.8102 1.89252 52.4232 1.89252H52.4231Z" fill="#903518" stroke="white" stroke-width="2" stroke-linejoin="round"/>
<path d="M44.9636 38.3049C45.1907 38.235 45.3855 38.0866 45.5132 37.8862L50.4286 30.167C50.7073 29.7293 50.6049 29.1511 50.1928 28.8357C49.7807 28.5204 49.1958 28.5726 48.8461 28.9561C47.4564 30.4801 44.6203 33.1639 40.1912 34.7362C37.319 35.7558 34.7589 35.9596 32.9951 35.9518C32.5122 35.9496 32.0967 36.2929 32.0078 36.7676C31.9189 37.2423 32.1819 37.7128 32.6329 37.8856C34.085 38.4419 36.3893 39.1215 39.277 39.1412C41.654 39.1574 43.6107 38.7209 44.9636 38.3049Z" fill="#CC5520" stroke="white" stroke-width="2" stroke-linejoin="round"/>
<path d="M8.35945 9.56909C6.59986 12.1118 3.9967 16.5708 2.73363 22.6931C1.67729 27.8132 1.95682 32.1646 2.36787 35.0127C5.12722 37.026 7.37782 37.4325 8.89281 37.4481C12.4268 37.4843 16.4341 35.4385 20.2663 35.3458C21.0589 35.3267 21.8755 35.3512 21.8755 35.3512C23.5415 35.4013 24.9297 35.5807 25.9358 35.7491C25.0509 35.4993 11.0552 31.3178 8.16892 19.2056C7.2641 15.4086 7.72769 11.9937 8.35945 9.56909Z" fill="#EA9127"/>
<path d="M2.65591 36.7525C3.29011 39.7599 4.70835 44.3804 8.15168 48.9453C15.4011 58.5567 26.1306 60.636 28.9572 61.0933C28.4839 58.3965 28.1049 54.5372 28.6484 49.9633C29.1945 45.3669 30.4773 41.6888 31.5753 39.1728C26.6193 36.6017 22.7335 36.3319 20.0594 36.587C15.0303 37.0669 11.4057 39.678 6.10969 38.2394C4.57369 37.8222 3.39531 37.1996 2.65598 36.7525L2.65591 36.7525Z" fill="#EA9127"/>
<path d="M10.0114 51.1735C12.3331 51.099 15.6041 50.7021 19.2017 49.2497C26.1106 46.4609 29.9933 41.4874 31.5753 39.1731C31.0005 40.4873 30.4627 41.9203 29.9995 43.4716C27.9386 50.3738 28.2439 56.6405 28.9572 61.0936C24.3494 60.287 17.9847 58.362 12.3653 53.4604C11.5057 52.7105 10.7234 51.9434 10.0114 51.1735Z" fill="#903518"/>
<path d="M8.35994 9.56909C7.02313 11.4997 5.51064 14.0864 4.29279 17.321C2.47266 22.1553 2.04822 26.4776 2.00388 29.4381C2.7452 28.6863 3.49254 28.2133 4.14954 27.9067C9.34727 25.4805 15.5834 30.335 16.0528 30.7105C14.6177 29.6599 9.25886 25.4761 7.93723 18.0836C7.29176 14.4733 7.84722 11.4295 8.36 9.56916L8.35994 9.56909Z" fill="#F6D365"/>
<path d="M2.65598 36.7525C4.13233 38.4265 7.3176 41.5404 12.3375 43.0174C22.1932 45.917 30.499 39.9703 31.5752 39.1728C30.2116 41.2157 27.1429 45.2156 21.7089 48.0798C16.8779 50.6264 12.4195 51.0937 10.0113 51.1732C8.62712 49.66 6.90776 47.4735 5.4104 44.5656C3.86203 41.5587 3.07619 38.8004 2.65591 36.7525H2.65598Z" fill="#CC5520"/>
<path d="M27.142 2C26.5706 3.03263 25.82 4.69042 25.511 6.85241C25.2716 8.52712 25.3753 9.95837 25.532 10.9852C26.5904 10.602 27.761 10.2296 29.0371 9.89795C30.4251 9.53726 31.7292 9.27919 32.9236 9.09436C32.5396 8.09665 31.8998 6.75708 30.8264 5.37125C29.5341 3.70264 28.131 2.63541 27.1419 2L27.142 2Z" fill="#EA9127"/>
<path d="M52.4233 2.89252C51.4603 3.41197 50.0994 4.2868 48.7698 5.69537C47.4181 7.12739 46.6171 8.56184 46.1549 9.56314C47.2939 9.82332 48.5314 10.159 49.8421 10.5949C51.1457 11.0284 52.3319 11.4981 53.3953 11.9692C53.6404 10.9119 53.8891 9.2774 53.6705 7.30107C53.4574 5.37286 52.8816 3.86294 52.4234 2.89252H52.4233Z" fill="#EA9127"/>
<path d="M25.4634 12.4245C25.3027 14.1184 25.2425 16.2078 25.4819 18.5785C25.737 21.1054 26.2624 23.2583 26.7998 24.9528C28.2364 21.5531 30.0144 19.4278 31.4464 18.084C32.7525 16.8582 34.1981 15.8815 34.7904 13.9334C35.2453 12.4371 35.0001 11.015 34.7012 10.0123C33.4791 10.1391 32.1115 10.3531 30.6382 10.7047C28.6319 11.1835 26.8981 11.8056 25.4634 12.4245Z" fill="#E39334"/>
<path d="M35.9312 9.89727C36.1239 10.5441 36.3555 11.6149 36.2343 12.9323C36.1882 13.4343 36.0756 14.5433 35.4464 15.7331C34.6514 17.2365 33.8091 17.3988 31.8866 19.6162C31.3934 20.185 31.0187 20.6705 30.7885 20.9781C33.5868 22.3825 36.3849 23.7869 39.1832 25.1914C40.5378 24.4723 46.7516 20.9986 47.8346 14.5214C47.9909 13.5864 48.0618 12.4601 47.913 11.1668C46.1434 10.6498 43.9517 10.1656 41.4133 9.93962C39.3567 9.75658 37.5071 9.78176 35.9312 9.8974L35.9312 9.89727Z" fill="#F6D365"/>
<path d="M53.4497 13.2442C53.5602 14.1838 53.6249 15.2007 53.6162 16.2855C53.5845 20.2749 52.5744 23.5829 51.5763 25.9392C51.5718 25.7516 51.4811 23.5744 49.5722 22.3325C47.7512 21.1478 45.8268 21.8233 45.6211 21.8996C46.389 21.0401 47.3895 19.7144 48.1505 17.8968C49.2632 15.2398 49.3101 12.8541 49.2338 11.5151C50.6392 12.0915 52.0444 12.6679 53.4497 13.2443V13.2442Z" fill="#EA9127"/>
<path d="M27.1205 26.2646C29.0773 29.827 31.0341 33.3893 32.991 36.9516C34.2687 37.4444 36.2224 38.0289 38.6634 38.1303C41.2386 38.2372 43.329 37.7637 44.6699 37.3489C46.8562 33.9172 49.0424 30.4855 51.2286 27.0538C50.5167 27.2463 49.5829 27.4622 48.4758 27.6209C47.5421 27.7547 46.3983 27.8602 44.8971 27.8534C41.9108 27.84 41.755 27.4014 38.972 27.3087C36.4671 27.2255 36.4546 27.576 33.6091 27.4365C31.9145 27.3534 30.6382 27.1663 29.4939 26.9167C28.5264 26.7056 27.7201 26.4644 27.1206 26.2647L27.1205 26.2646Z" fill="#F6D365"/>
<path d="M32.9539 39.1139C34.6004 41.0922 36.2471 43.0705 37.8937 45.0487C36.3671 47.2112 34.6899 49.9414 33.1754 53.2411C31.7825 56.2757 30.8483 59.0922 30.2097 61.5005C29.5441 57.3318 29.2006 51.3098 31.0374 44.5423C31.5821 42.5355 32.2476 40.7242 32.9538 39.114L32.9539 39.1139Z" fill="#F6D365"/>
<path d="M43.453 40.3918C41.3674 42.5567 38.8835 45.5424 36.6106 49.4301C33.9961 53.9018 32.5367 58.0685 31.6918 61.2323C34.7949 61.7502 37.343 61.6922 39.0918 61.5387C41.9716 61.2861 43.1499 60.734 44 60.1261C44.3614 59.8677 45.4742 59.0719 46.1016 57.7699C47.4503 54.9707 45.3361 52.3623 44.1602 47.0144C43.8245 45.4878 43.4551 43.2369 43.4529 40.3918H43.453Z" fill="#903518"/>
<path d="M37.8673 26.5657C37.1491 26.0873 36.172 25.4619 34.979 24.7723C34.3396 24.4028 33.8371 24.1298 33.2891 23.8325C32.48 23.3938 31.4222 22.8337 30.1601 22.2021C29.9855 22.5518 29.6977 23.2454 29.7024 24.1602C29.7065 24.9627 29.9338 25.5829 30.0904 25.9278C31.0653 25.8914 32.1242 25.8953 33.2547 25.9622C34.9688 26.0638 36.516 26.2906 37.8674 26.5658L37.8673 26.5657Z" fill="#532322"/>
<path d="M40.295 26.6506C41.6676 25.8689 43.1733 25.0828 44.8116 24.3247C45.9918 23.7786 47.1363 23.2955 48.235 22.8673C48.3861 23.2284 48.643 23.9813 48.5392 24.9404C48.458 25.6895 48.1905 26.2524 48.0063 26.5733C47.0335 26.4625 45.9668 26.3871 44.8184 26.3741C43.1406 26.355 41.6211 26.4727 40.295 26.6506Z" fill="#532322"/>
<path d="M34.5002 38.817C35.607 39.1003 37.0302 39.3617 38.6967 39.4188C40.3832 39.4765 41.8358 39.3084 42.967 39.0973C41.4918 40.6714 40.0166 42.2455 38.5414 43.8194C37.1943 42.152 35.8472 40.4845 34.5002 38.817Z" fill="#532322"/>
<path d="M40.2643 26.6569C41.015 26.2314 42.0347 25.6779 43.2742 25.076C43.9386 24.7533 44.4594 24.5172 45.0273 24.2602C45.8658 23.8807 46.9613 23.3983 48.2656 22.8591C48.4146 23.2204 48.6518 23.9329 48.5812 24.845C48.5194 25.6452 48.2481 26.2473 48.0672 26.58C47.0974 26.4736 46.041 26.4013 44.9086 26.3868C43.1916 26.3648 41.6321 26.4797 40.2644 26.657L40.2643 26.6569Z" fill="#532322"/>
<path d="M26.7995 24.9527C26.0137 22.3033 25.3718 19.0382 25.3367 15.2946C25.3272 14.2873 25.3624 13.3239 25.4307 12.4087C26.8328 11.8158 28.511 11.2213 30.4414 10.7523C31.9908 10.3759 33.4255 10.1477 34.701 10.0123C34.4366 10.5811 33.9805 11.455 33.2516 12.3971C31.1421 15.1241 29.0566 15.4395 27.6909 17.0454C26.6763 18.2387 25.7956 20.4543 26.7996 24.9528L26.7995 24.9527Z" fill="#CC5520"/>
<path d="M45.7792 19.494C44.5646 19.2188 42.4928 18.574 40.4566 16.942C37.2903 14.4045 36.251 11.1158 35.9308 9.89733C37.5711 9.77695 39.5286 9.75325 41.7203 9.96845C44.1334 10.2054 46.2201 10.6721 47.9126 11.1667C48.0121 12.0458 48.0471 13.2045 47.8233 14.5315C47.4327 16.8477 46.4452 18.5404 45.7792 19.4939V19.494Z" fill="#CC5520"/>
<path d="M49.2331 11.5151C50.6384 12.0915 52.0437 12.6679 53.449 13.2443C53.6119 14.664 53.6868 16.3864 53.5107 18.3274C53.22 21.5312 52.3548 24.1255 51.5755 25.9393C51.8099 25.3054 53.6183 20.1868 50.8175 16.6355C50.4162 16.1267 49.8398 15.548 49.0077 15.0297C49.0801 14.6433 49.1418 14.2275 49.1858 13.7846C49.2686 12.949 49.2712 12.1854 49.2332 11.5151L49.2331 11.5151Z" fill="#CC5520"/>
<path d="M46.1549 9.56314C46.6019 8.5958 47.3328 7.29281 48.5122 5.97573C49.9204 4.40321 51.3986 3.44625 52.4233 2.89252C52.8576 3.81444 53.347 5.11256 53.5935 6.72281C53.9338 8.94669 53.6634 10.8012 53.3952 11.9692C53.2345 10.3915 52.2197 9.03427 50.7719 8.46722C49.1836 7.84526 47.3418 8.2788 46.1549 9.56314Z" fill="#CC5520"/>
<path d="M25.5324 10.9852C25.3736 9.94555 25.2658 8.46734 25.5292 6.73152C25.8486 4.62609 26.5823 3.01142 27.1423 2C28.0247 2.56661 29.1536 3.42356 30.2503 4.67261C31.6939 6.31688 32.4877 7.96416 32.924 9.09436C31.8266 7.63403 29.9383 7.03596 28.2772 7.59802C26.8159 8.09249 25.7502 9.4104 25.5325 10.9852H25.5324Z" fill="#CC5520"/>
<path d="M36.3159 52.563C33.5027 55.9155 32.2571 59.28 31.6918 61.2321C33.1928 58.566 37.4346 51.8548 43.9642 51.2671C44.4175 51.2263 44.8885 51.2144 45.3771 51.2375C45.0572 50.3391 44.7507 49.3637 44.4763 48.3146C44.3132 47.6913 44.1732 47.0865 44.0527 46.5031C42.2282 47.3985 39.13 49.2094 36.3159 52.563V52.563Z" fill="#CC5520"/>
<path d="M30.7075 45.848C29.9562 49.2062 29.4458 53.3555 29.8009 58.0564C29.8921 59.2628 30.0332 60.4122 30.2097 61.5008C30.4902 60.4931 30.8095 59.4465 31.1734 58.367C31.6699 56.8943 32.1965 55.5178 32.7326 54.2404C32.0576 51.4429 31.3826 48.6453 30.7075 45.8479V45.848Z" fill="#CC5520"/>
<path d="M32.991 36.9516C31.0342 33.3893 29.0774 29.827 27.1205 26.2646C28.1177 28.0971 29.2767 29.1133 30.1007 29.6867C35.2174 33.2473 42.84 30.4723 46.7952 29.0277C48.7896 28.2993 50.3284 27.5344 51.2197 27.0631C49.0364 30.4917 46.8531 33.9203 44.6699 37.3489C43.3556 37.7555 41.3328 38.2147 38.843 38.1365C36.3069 38.0568 34.2854 37.4508 32.9909 36.9516H32.991Z" fill="#EA9127"/>
<path d="M35.9311 9.89783C36.1508 10.5986 36.4247 11.8117 36.2174 13.291C36.1485 13.7829 36.0178 14.9104 35.2684 16.0462C34.6813 16.9359 34.2277 17.2221 33.1589 18.2697C32.5417 18.8746 31.6984 19.7689 30.7885 20.9785C31.815 21.3758 33.0168 21.7356 34.379 21.9595C38.9927 22.7179 42.8393 21.4897 44.9255 20.6179C45.2102 20.2434 45.4948 19.8689 45.7796 19.4944C43.8134 18.4033 41.1949 16.629 38.7518 13.8257C37.5565 12.4543 36.6371 11.1049 35.9312 9.89777L35.9311 9.89783Z" fill="#EA9127"/>
<path d="M36.2389 45.622C33.9348 47.0706 31.1694 46.0296 30.7073 45.8477C30.6882 46.88 30.6892 47.9399 30.7136 49.0262C30.7833 52.1287 31.0347 55.0329 31.3975 57.7139C32.3679 54.912 33.7322 51.7541 35.6778 48.4676C36.4051 47.2391 37.1499 46.1005 37.8934 45.0488C37.7485 44.8746 37.6035 44.7003 37.4585 44.5261C37.1513 44.9101 36.7529 45.2988 36.2389 45.622Z" fill="#EA9127"/>
<path d="M31.6918 61.2323C32.3323 59.1918 33.6842 55.7958 36.5778 52.4235C39.2834 49.2705 42.1977 47.4654 44.0527 46.5034C43.8174 45.317 43.6255 43.9916 43.5263 42.5446C43.4748 41.7932 43.4527 41.0744 43.453 40.3918C41.6209 42.2939 39.6017 44.703 37.689 47.6739C34.419 52.7528 32.6689 57.5966 31.6918 61.2322V61.2323Z" fill="#EA9127"/>
<path d="M27.1609 2C26.8469 2.53976 26.5229 3.18523 26.2386 3.9343C25.7773 5.14958 25.5652 6.25685 25.4672 7.13482C25.5143 6.87496 25.7743 5.58806 26.8881 4.92785C28.1582 4.17506 30.0371 4.53461 31.2801 5.95035C30.6743 5.10858 29.8482 4.13349 28.7425 3.1878C28.1974 2.72152 27.6627 2.32937 27.1609 2H27.1609Z" fill="#903518"/>
<path d="M52.4231 2.89252C52.7059 3.44368 52.9951 4.11228 53.2305 4.89217C53.6177 6.17549 53.7269 7.32209 53.7386 8.19429C53.7194 7.9675 53.5785 6.56296 52.4448 5.79173C51.2252 4.96206 49.345 5.19693 48.0485 6.51344C48.6631 5.75752 49.5086 4.87077 50.6354 4.03085C51.2617 3.56406 51.8685 3.191 52.4232 2.89252H52.4231Z" fill="#903518"/>
<path d="M44.6697 37.349C46.3082 34.776 47.9466 32.2029 49.5851 29.6299C48.1339 31.2212 45.1664 34.0311 40.5258 35.6785C37.5164 36.7469 34.8354 36.9599 32.9907 36.9517C34.3669 37.479 36.5495 38.1226 39.2838 38.1412C41.5346 38.1566 43.3878 37.7432 44.6697 37.349Z" fill="#CC5520"/>
<path d="M77.5426 51.2641C75.2418 49.1328 72.1418 47.9582 68.8117 47.9582H68.1336C67.3465 45.1125 65.7844 42.6906 63.5805 40.9105C61.0012 38.8398 57.6348 37.75 53.8324 37.75C49.8727 37.75 46.1793 39.1668 43.4184 41.734C40.6574 44.3012 39.1195 47.7887 39.0469 51.591C36.9277 52.0754 34.9781 53.25 33.4766 54.9695C31.757 56.9313 30.8125 59.4016 30.8125 61.9203C30.8125 67.3211 35.0387 71.9227 40.1852 72.3344L37.2547 76.2578C36.9641 76.6453 36.8551 77.1297 36.9277 77.602C37.0004 78.0742 37.2668 78.486 37.6543 78.7645C37.957 78.9824 38.3203 79.0914 38.6957 79.0914C39.3254 79.0914 39.8824 78.8371 40.2094 78.3891L44.702 72.3344H48.9523L42.2559 81.4285C41.9773 81.816 41.8441 82.2641 41.9047 82.7121C41.9652 83.1844 42.2195 83.6082 42.6191 83.8988C43.043 84.2016 43.5273 84.2379 43.709 84.2379C44.5809 84.2379 45.0652 83.8141 45.3316 83.4629L53.4934 72.3465H57.6953L54.7891 76.2578C54.4984 76.6574 54.3773 77.1297 54.4621 77.602C54.5348 78.0742 54.8012 78.486 55.1887 78.7645C55.4914 78.9824 55.8547 79.0914 56.2301 79.0914C56.8598 79.0914 57.4168 78.8371 57.7437 78.3891L62.2242 72.3344H66.4746L59.7781 81.4285C59.4996 81.816 59.3664 82.2762 59.4269 82.7121C59.4875 83.1723 59.7418 83.584 60.1414 83.8746C60.4562 84.1047 60.8559 84.2379 61.2191 84.2379C61.8367 84.2379 62.3937 83.9715 62.7328 83.5113L71.173 71.9953C73.8855 71.4504 76.3801 69.9852 78.2086 67.8176C80.134 65.541 81.1996 62.659 81.1996 59.6922C81.1875 56.4469 79.8918 53.4438 77.5426 51.2641Z" fill="#F2F2F2"/>
</svg>
