<svg width="73" height="60" viewBox="0 0 73 60" fill="none" xmlns="http://www.w3.org/2000/svg">
<path d="M67.9727 44.3141L65.6945 42.9922C66.5242 42.1273 67.5227 41.7125 67.5367 41.7055C68.0641 41.4945 68.3383 40.9039 68.1625 40.3625C68.0289 39.9477 67.6422 39.6734 67.2133 39.6734C67.0797 39.6734 66.9531 39.7016 66.8266 39.7508C66.7563 39.7789 65.1109 40.4539 63.8805 41.9445L57.1094 38.007L63.8805 34.0695C65.1109 35.5602 66.7492 36.2352 66.8266 36.2633C66.9531 36.3125 67.0797 36.3406 67.2133 36.3406C67.6422 36.3406 68.0289 36.0594 68.1625 35.6516C68.3383 35.1102 68.0641 34.5195 67.5367 34.3086C67.5297 34.3016 66.5313 33.8867 65.6945 33.0219L67.9727 31.7C68.4789 31.4047 68.6477 30.7578 68.3594 30.2516C68.1695 29.9211 67.818 29.7172 67.4383 29.7172C67.2555 29.7172 67.0656 29.7664 66.9039 29.8578L64.6399 31.1797C64.3234 30.0406 64.45 28.9719 64.457 28.9297C64.5344 28.3602 64.1688 27.8328 63.6133 27.7133C63.543 27.6992 63.4727 27.6922 63.4024 27.6922C62.9031 27.6922 62.4883 28.0578 62.4109 28.5641C62.3969 28.6414 62.1578 30.3922 62.8399 32.2344L56.0899 36.1719V29.1969C57.9813 28.8664 59.3805 27.7766 59.4438 27.7273C59.6617 27.5516 59.8024 27.3055 59.8234 27.0242C59.8445 26.743 59.7602 26.4758 59.5703 26.2648C59.3664 26.0398 59.0781 25.9062 58.7688 25.9062C58.5297 25.9062 58.2906 25.9906 58.1008 26.1383C58.0938 26.1453 57.243 26.7992 56.0899 27.0945V24.4367C56.0899 23.8602 55.5906 23.375 55 23.375C54.4094 23.375 53.9102 23.8602 53.9102 24.4367V27.0734C52.7641 26.7781 51.9133 26.1242 51.8992 26.1172C51.7094 25.9695 51.4774 25.8852 51.2313 25.8852C50.9219 25.8852 50.6336 26.0188 50.4297 26.2438C50.2399 26.4547 50.1484 26.7359 50.1766 27.0102C50.1977 27.2844 50.3383 27.5305 50.5563 27.7062C50.6195 27.7555 52.0188 28.8453 53.9102 29.1758V36.1508L47.1602 32.2133C47.8352 30.3852 47.5961 28.6203 47.582 28.543C47.5117 28.0367 47.0969 27.6711 46.5977 27.6711C46.5274 27.6711 46.457 27.6781 46.3867 27.6922C45.8313 27.8047 45.4586 28.3461 45.543 28.9086C45.543 28.9227 45.6836 29.9984 45.3602 31.1516L43.0891 29.8438C42.9274 29.7523 42.7445 29.7031 42.5547 29.7031C42.175 29.7031 41.8235 29.907 41.6336 30.2375C41.3453 30.7438 41.5141 31.3977 42.0203 31.6859L44.2985 33.0078C43.4758 33.8586 42.4914 34.2805 42.4563 34.2945C41.9289 34.5055 41.6547 35.0961 41.8305 35.6375C41.9641 36.0523 42.3508 36.3266 42.7797 36.3266C42.9133 36.3266 43.0399 36.2984 43.1664 36.2492C43.2367 36.2211 44.882 35.5461 46.1125 34.0555L52.8836 37.993L46.1125 41.9305C44.882 40.4398 43.2438 39.7648 43.1664 39.7367C43.0399 39.6875 42.9133 39.6594 42.7797 39.6594C42.3508 39.6594 41.9641 39.9406 41.8305 40.3484C41.6547 40.8898 41.9289 41.4734 42.4563 41.6914C42.4914 41.7055 43.4758 42.1273 44.2985 42.9781L42.0203 44.3C41.5141 44.5953 41.3453 45.2422 41.6336 45.7484C41.8235 46.0789 42.175 46.2828 42.5547 46.2828C42.7375 46.2828 42.9274 46.2336 43.0891 46.1422L45.3602 44.8203C45.6836 45.9805 45.543 47.0562 45.543 47.0703C45.4586 47.6328 45.8313 48.1742 46.3867 48.2867C46.457 48.3008 46.5274 48.3078 46.5977 48.3078C47.0969 48.3078 47.5117 47.9422 47.5891 47.4359C47.6031 47.3586 47.8422 45.6078 47.1602 43.7656L53.9102 39.8281V46.8031C52.0188 47.1336 50.6195 48.2234 50.5563 48.2727C50.3383 48.4484 50.1977 48.6945 50.1766 48.9758C50.1555 49.257 50.2399 49.5242 50.4297 49.7352C50.6336 49.9602 50.9219 50.0938 51.2313 50.0938C51.4703 50.0938 51.7094 50.0094 51.8992 49.8617C51.9063 49.8547 52.7641 49.2008 53.9102 48.9055V51.5422C53.9102 52.1187 54.4094 52.6039 55 52.6039C55.5906 52.6039 56.0899 52.1187 56.0899 51.5422V48.9055C57.2359 49.2008 58.0867 49.8547 58.1008 49.8617C58.2906 50.0094 58.5297 50.0938 58.7688 50.0938C59.0781 50.0938 59.3664 49.9602 59.5703 49.7352C59.7602 49.5242 59.8516 49.243 59.8234 48.9688C59.8024 48.6945 59.6617 48.4484 59.4438 48.2727C59.3805 48.2234 57.9813 47.1336 56.0899 46.8031V39.8281L62.8399 43.7656C62.1649 45.5938 62.4039 47.3586 62.418 47.4359C62.4883 47.9422 62.9031 48.3078 63.4024 48.3078C63.4727 48.3078 63.543 48.3008 63.6133 48.2867C64.1688 48.1742 64.5344 47.6398 64.457 47.0703C64.45 47.0352 64.3234 45.9664 64.6399 44.8203L66.9039 46.1422C67.0656 46.2336 67.2484 46.2828 67.4383 46.2828C67.818 46.2828 68.1695 46.0789 68.3594 45.7484C68.6477 45.2633 68.4789 44.6094 67.9727 44.3141Z" fill="#2F80ED"/>
<path d="M18.4863 22.157L17.3473 21.4961C17.7621 21.0637 18.2613 20.8563 18.2684 20.8527C18.532 20.7473 18.6691 20.452 18.5813 20.1813C18.5145 19.9738 18.3211 19.8367 18.1066 19.8367C18.0398 19.8367 17.9766 19.8508 17.9133 19.8754C17.8781 19.8895 17.0555 20.227 16.4402 20.9723L13.0547 19.0035L16.4402 17.0348C17.0555 17.7801 17.8746 18.1176 17.9133 18.1316C17.9766 18.1563 18.0398 18.1703 18.1066 18.1703C18.3211 18.1703 18.5145 18.0297 18.5813 17.8258C18.6691 17.5551 18.532 17.2598 18.2684 17.1543C18.2648 17.1508 17.7656 16.9434 17.3473 16.5109L18.4863 15.85C18.7395 15.7023 18.8238 15.3789 18.6797 15.1258C18.5848 14.9605 18.409 14.8586 18.2191 14.8586C18.1277 14.8586 18.0328 14.8832 17.952 14.9289L16.8199 15.5898C16.6617 15.0203 16.725 14.4859 16.7285 14.4648C16.7672 14.1801 16.5844 13.9164 16.3066 13.8566C16.2715 13.8496 16.2363 13.8461 16.2012 13.8461C15.9516 13.8461 15.7441 14.0289 15.7055 14.282C15.6984 14.3207 15.5789 15.1961 15.9199 16.1172L12.5449 18.0859V14.5984C13.4906 14.4332 14.1902 13.8883 14.2219 13.8637C14.3309 13.7758 14.4012 13.6527 14.4117 13.5121C14.4223 13.3715 14.3801 13.2379 14.2852 13.1324C14.1832 13.0199 14.0391 12.9531 13.8844 12.9531C13.7648 12.9531 13.6453 12.9953 13.5504 13.0691C13.5469 13.0727 13.1215 13.3996 12.5449 13.5473V12.2184C12.5449 11.9301 12.2953 11.6875 12 11.6875C11.7047 11.6875 11.4551 11.9301 11.4551 12.2184V13.5367C10.882 13.3891 10.4566 13.0621 10.4496 13.0586C10.3547 12.9848 10.2387 12.9426 10.1156 12.9426C9.96094 12.9426 9.8168 13.0094 9.71485 13.1219C9.61993 13.2273 9.57422 13.368 9.58829 13.5051C9.59883 13.6422 9.66915 13.7652 9.77813 13.8531C9.80977 13.8777 10.5094 14.4227 11.4551 14.5879V18.0754L8.08008 16.1066C8.41758 15.1926 8.29805 14.3102 8.29102 14.2715C8.25587 14.0184 8.04844 13.8355 7.79883 13.8355C7.76368 13.8355 7.72852 13.8391 7.69337 13.8461C7.41563 13.9023 7.2293 14.173 7.27149 14.4543C7.27149 14.4613 7.3418 14.9992 7.18008 15.5758L6.04454 14.9219C5.96368 14.8762 5.87227 14.8516 5.77735 14.8516C5.58751 14.8516 5.41173 14.9535 5.3168 15.1188C5.17266 15.3719 5.25704 15.6988 5.51016 15.843L6.64923 16.5039C6.2379 16.9293 5.74571 17.1402 5.72813 17.1473C5.46446 17.2527 5.32735 17.548 5.41524 17.8187C5.48204 18.0262 5.6754 18.1633 5.88985 18.1633C5.95665 18.1633 6.01993 18.1492 6.08321 18.1246C6.11837 18.1105 6.94102 17.773 7.55626 17.0277L10.9418 18.9965L7.55626 20.9652C6.94102 20.2199 6.12188 19.8824 6.08321 19.8684C6.01993 19.8438 5.95665 19.8297 5.88985 19.8297C5.6754 19.8297 5.48204 19.9703 5.41524 20.1742C5.32735 20.4449 5.46446 20.7367 5.72813 20.8457C5.74571 20.8527 6.2379 21.0637 6.64923 21.4891L5.51016 22.15C5.25704 22.2977 5.17266 22.6211 5.3168 22.8742C5.41173 23.0395 5.58751 23.1414 5.77735 23.1414C5.86876 23.1414 5.96368 23.1168 6.04454 23.0711L7.18008 22.4102C7.3418 22.9902 7.27149 23.5281 7.27149 23.5352C7.2293 23.8164 7.41563 24.0871 7.69337 24.1434C7.72852 24.1504 7.76368 24.1539 7.79883 24.1539C8.04844 24.1539 8.25587 23.9711 8.29454 23.718C8.30157 23.6793 8.4211 22.8039 8.08008 21.8828L11.4551 19.9141V23.4016C10.5094 23.5668 9.80977 24.1117 9.77813 24.1363C9.66915 24.2242 9.59883 24.3473 9.58829 24.4879C9.57774 24.6285 9.61993 24.7621 9.71485 24.8676C9.8168 24.9801 9.96094 25.0469 10.1156 25.0469C10.2352 25.0469 10.3547 25.0047 10.4496 24.9309C10.4531 24.9273 10.882 24.6004 11.4551 24.4527V25.7711C11.4551 26.0594 11.7047 26.302 12 26.302C12.2953 26.302 12.5449 26.0594 12.5449 25.7711V24.4527C13.118 24.6004 13.5434 24.9273 13.5504 24.9309C13.6453 25.0047 13.7648 25.0469 13.8844 25.0469C14.0391 25.0469 14.1832 24.9801 14.2852 24.8676C14.3801 24.7621 14.4258 24.6215 14.4117 24.4844C14.4012 24.3473 14.3309 24.2242 14.2219 24.1363C14.1902 24.1117 13.4906 23.5668 12.5449 23.4016V19.9141L15.9199 21.8828C15.5824 22.7969 15.702 23.6793 15.709 23.718C15.7441 23.9711 15.9516 24.1539 16.2012 24.1539C16.2363 24.1539 16.2715 24.1504 16.3066 24.1434C16.5844 24.0871 16.7672 23.8199 16.7285 23.5352C16.725 23.5176 16.6617 22.9832 16.8199 22.4102L17.952 23.0711C18.0328 23.1168 18.1242 23.1414 18.2191 23.1414C18.409 23.1414 18.5848 23.0395 18.6797 22.8742C18.8238 22.6316 18.7395 22.3047 18.4863 22.157V22.157Z" fill="#2F80ED"/>
<path d="M6.35945 7.56909C4.59986 10.1118 1.9967 14.5708 0.733626 20.6931C-0.322705 25.8132 -0.0431826 30.1646 0.367869 33.0127C3.12722 35.026 5.37782 35.4325 6.89281 35.4481C10.4268 35.4843 14.4341 33.4385 18.2663 33.3458C19.0589 33.3267 19.8755 33.3512 19.8755 33.3512C21.5415 33.4013 22.9297 33.5807 23.9358 33.7491C23.0509 33.4993 9.05519 29.3178 6.16892 17.2056C5.2641 13.4086 5.72769 9.9937 6.35945 7.56909Z" fill="#EA9127"/>
<path d="M0.655914 34.7525C1.29011 37.7599 2.70835 42.3804 6.15168 46.9453C13.4011 56.5567 24.1306 58.636 26.9572 59.0933C26.4839 56.3965 26.1049 52.5372 26.6484 47.9633C27.1945 43.3669 28.4773 39.6888 29.5753 37.1728C24.6193 34.6017 20.7335 34.3319 18.0594 34.587C13.0303 35.0669 9.4057 37.678 4.10969 36.2394C2.57369 35.8222 1.39531 35.1996 0.655978 34.7525L0.655914 34.7525Z" fill="#EA9127"/>
<path d="M8.01143 49.1735C10.3331 49.099 13.6041 48.7021 17.2017 47.2497C24.1106 44.4609 27.9933 39.4874 29.5753 37.1731C29.0005 38.4873 28.4627 39.9203 27.9995 41.4716C25.9386 48.3738 26.2439 54.6405 26.9572 59.0936C22.3494 58.287 15.9847 56.362 10.3653 51.4604C9.50566 50.7105 8.7234 49.9434 8.01143 49.1735Z" fill="#903518"/>
<path d="M6.35994 7.56909C5.02313 9.49968 3.51064 12.0864 2.29279 15.321C0.47266 20.1553 0.0482175 24.4776 0.00388336 27.4381C0.745199 26.6863 1.49254 26.2133 2.14954 25.9067C7.34727 23.4805 13.5834 28.335 14.0528 28.7105C12.6177 27.6599 7.25886 23.4761 5.93723 16.0836C5.29176 12.4733 5.84722 9.42946 6.36 7.56916L6.35994 7.56909Z" fill="#F6D365"/>
<path d="M0.655978 34.7525C2.13233 36.4265 5.3176 39.5404 10.3375 41.0174C20.1932 43.917 28.499 37.9703 29.5752 37.1728C28.2116 39.2157 25.1429 43.2156 19.7089 46.0798C14.8779 48.6264 10.4195 49.0937 8.01135 49.1732C6.62712 47.66 4.90776 45.4735 3.4104 42.5656C1.86203 39.5587 1.07619 36.8004 0.655914 34.7525H0.655978Z" fill="#CC5520"/>
<path d="M25.142 0C24.5706 1.03263 23.82 2.69042 23.511 4.85241C23.2716 6.52712 23.3753 7.95837 23.532 8.98516C24.5904 8.60204 25.761 8.22956 27.0371 7.89795C28.4251 7.53726 29.7292 7.27919 30.9236 7.09436C30.5396 6.09665 29.8998 4.75708 28.8264 3.37125C27.5341 1.70264 26.131 0.635414 25.1419 0L25.142 0Z" fill="#EA9127"/>
<path d="M50.4233 0.892517C49.4603 1.41197 48.0994 2.2868 46.7698 3.69537C45.4181 5.12739 44.6171 6.56184 44.1549 7.56314C45.2939 7.82332 46.5314 8.15896 47.8421 8.59487C49.1457 9.02841 50.3319 9.49809 51.3953 9.96923C51.6404 8.91187 51.8891 7.2774 51.6705 5.30107C51.4574 3.37286 50.8816 1.86294 50.4234 0.892517H50.4233Z" fill="#EA9127"/>
<path d="M23.4634 10.4245C23.3027 12.1184 23.2425 14.2078 23.4819 16.5785C23.737 19.1053 24.2624 21.2583 24.7998 22.9528C26.2364 19.5531 28.0144 17.4278 29.4464 16.084C30.7525 14.8582 32.1981 13.8815 32.7904 11.9334C33.2453 10.4371 33.0001 9.01503 32.7012 8.01232C31.4791 8.13911 30.1115 8.35309 28.6382 8.70469C26.6319 9.18346 24.8981 9.80555 23.4634 10.4245Z" fill="#E39334"/>
<path d="M33.9312 7.89727C34.1239 8.54409 34.3555 9.6149 34.2343 10.9323C34.1882 11.4343 34.0756 12.5433 33.4464 13.7331C32.6514 15.2365 31.8091 15.3988 29.8866 17.6162C29.3934 18.185 29.0187 18.6705 28.7885 18.9781C31.5868 20.3825 34.3849 21.7869 37.1832 23.1914C38.5378 22.4723 44.7516 18.9986 45.8346 12.5214C45.9909 11.5864 46.0618 10.4601 45.913 9.16675C44.1434 8.6498 41.9517 8.16558 39.4133 7.93962C37.3567 7.75658 35.5071 7.78176 33.9312 7.8974L33.9312 7.89727Z" fill="#F6D365"/>
<path d="M51.4497 11.2442C51.5602 12.1838 51.6249 13.2007 51.6162 14.2855C51.5845 18.2749 50.5744 21.5829 49.5763 23.9392C49.5718 23.7516 49.4811 21.5744 47.5722 20.3325C45.7512 19.1478 43.8268 19.8233 43.6211 19.8996C44.389 19.0401 45.3895 17.7144 46.1505 15.8968C47.2632 13.2398 47.3101 10.8541 47.2338 9.51508C48.6392 10.0915 50.0444 10.6679 51.4497 11.2443V11.2442Z" fill="#EA9127"/>
<path d="M25.1205 24.2646C27.0773 27.827 29.0341 31.3893 30.991 34.9516C32.2687 35.4444 34.2224 36.0289 36.6634 36.1303C39.2386 36.2372 41.329 35.7637 42.6699 35.3489C44.8562 31.9172 47.0424 28.4855 49.2286 25.0538C48.5167 25.2463 47.5829 25.4622 46.4758 25.6209C45.5421 25.7547 44.3983 25.8602 42.8971 25.8534C39.9108 25.84 39.755 25.4014 36.972 25.3087C34.4671 25.2255 34.4546 25.576 31.6091 25.4365C29.9145 25.3534 28.6382 25.1663 27.4939 24.9167C26.5264 24.7056 25.7201 24.4644 25.1206 24.2647L25.1205 24.2646Z" fill="#F6D365"/>
<path d="M30.9539 37.1139C32.6004 39.0922 34.2471 41.0705 35.8937 43.0487C34.3671 45.2112 32.6899 47.9414 31.1754 51.2411C29.7825 54.2757 28.8483 57.0922 28.2097 59.5005C27.5441 55.3318 27.2006 49.3098 29.0374 42.5423C29.5821 40.5355 30.2476 38.7242 30.9538 37.114L30.9539 37.1139Z" fill="#F6D365"/>
<path d="M41.453 38.3918C39.3674 40.5567 36.8835 43.5424 34.6106 47.4301C31.9961 51.9018 30.5367 56.0685 29.6918 59.2323C32.7949 59.7502 35.343 59.6922 37.0918 59.5387C39.9716 59.2861 41.1499 58.734 42 58.1261C42.3614 57.8677 43.4743 57.0719 44.1016 55.7699C45.4503 52.9707 43.3361 50.3623 42.1602 45.0144C41.8245 43.4878 41.4551 41.2369 41.4529 38.3918H41.453Z" fill="#903518"/>
<path d="M35.8673 24.5657C35.1491 24.0873 34.172 23.4619 32.979 22.7723C32.3396 22.4028 31.8371 22.1298 31.2891 21.8325C30.48 21.3938 29.4222 20.8337 28.1601 20.2021C27.9855 20.5518 27.6977 21.2454 27.7024 22.1602C27.7065 22.9627 27.9338 23.5829 28.0904 23.9278C29.0653 23.8914 30.1242 23.8953 31.2547 23.9622C32.9688 24.0638 34.516 24.2906 35.8674 24.5658L35.8673 24.5657Z" fill="#532322"/>
<path d="M38.295 24.6506C39.6676 23.8689 41.1733 23.0828 42.8116 22.3247C43.9918 21.7786 45.1363 21.2955 46.235 20.8673C46.3861 21.2284 46.643 21.9813 46.5392 22.9404C46.458 23.6895 46.1905 24.2524 46.0063 24.5733C45.0335 24.4625 43.9668 24.3871 42.8184 24.3741C41.1406 24.355 39.621 24.4727 38.295 24.6506Z" fill="#532322"/>
<path d="M32.5002 36.817C33.607 37.1003 35.0302 37.3617 36.6967 37.4188C38.3832 37.4765 39.8358 37.3084 40.967 37.0973C39.4918 38.6714 38.0166 40.2455 36.5414 41.8194C35.1943 40.152 33.8472 38.4845 32.5002 36.817Z" fill="#532322"/>
<path d="M38.2643 24.6569C39.015 24.2314 40.0347 23.6779 41.2742 23.076C41.9386 22.7533 42.4594 22.5172 43.0273 22.2602C43.8658 21.8807 44.9613 21.3983 46.2656 20.8591C46.4146 21.2204 46.6518 21.9329 46.5812 22.845C46.5194 23.6452 46.2481 24.2473 46.0672 24.58C45.0974 24.4736 44.041 24.4013 42.9086 24.3868C41.1916 24.3648 39.6321 24.4797 38.2644 24.657L38.2643 24.6569Z" fill="#532322"/>
<path d="M24.7995 22.9527C24.0137 20.3033 23.3718 17.0382 23.3367 13.2946C23.3272 12.2873 23.3624 11.3239 23.4307 10.4087C24.8328 9.8158 26.511 9.22126 28.4414 8.75229C29.9908 8.3759 31.4255 8.14769 32.701 8.01232C32.4366 8.58111 31.9805 9.45498 31.2516 10.3971C29.1421 13.1241 27.0566 13.4395 25.6909 15.0454C24.6763 16.2387 23.7956 18.4543 24.7996 22.9527L24.7995 22.9527Z" fill="#CC5520"/>
<path d="M43.7792 17.494C42.5646 17.2188 40.4928 16.574 38.4566 14.942C35.2903 12.4045 34.251 9.11575 33.9308 7.89733C35.5711 7.77695 37.5286 7.75325 39.7203 7.96845C42.1334 8.20537 44.2201 8.67209 45.9126 9.16669C46.0121 10.0458 46.0471 11.2045 45.8233 12.5315C45.4327 14.8477 44.4452 16.5404 43.7792 17.4939V17.494Z" fill="#CC5520"/>
<path d="M47.2331 9.51508C48.6384 10.0915 50.0437 10.6679 51.449 11.2443C51.6119 12.664 51.6868 14.3864 51.5107 16.3274C51.22 19.5312 50.3548 22.1255 49.5755 23.9393C49.8099 23.3054 51.6183 18.1868 48.8175 14.6355C48.4162 14.1267 47.8398 13.548 47.0077 13.0297C47.0801 12.6433 47.1418 12.2275 47.1858 11.7846C47.2686 10.949 47.2712 10.1854 47.2332 9.51514L47.2331 9.51508Z" fill="#CC5520"/>
<path d="M44.1549 7.56314C44.6019 6.5958 45.3328 5.29281 46.5122 3.97573C47.9204 2.40321 49.3986 1.44625 50.4233 0.892517C50.8576 1.81444 51.347 3.11256 51.5935 4.72281C51.9338 6.94669 51.6634 8.80123 51.3952 9.96917C51.2345 8.39153 50.2197 7.03427 48.7719 6.46722C47.1836 5.84526 45.3418 6.2788 44.1549 7.56314Z" fill="#CC5520"/>
<path d="M23.5324 8.98516C23.3736 7.94555 23.2658 6.46734 23.5292 4.73152C23.8486 2.62609 24.5823 1.01142 25.1423 0C26.0247 0.566606 27.1536 1.42356 28.2503 2.67261C29.6939 4.31688 30.4877 5.96416 30.924 7.09436C29.8266 5.63403 27.9383 5.03596 26.2772 5.59802C24.8159 6.09249 23.7502 7.4104 23.5325 8.98516H23.5324Z" fill="#CC5520"/>
<path d="M34.3159 50.563C31.5027 53.9155 30.2571 57.28 29.6918 59.2321C31.1928 56.566 35.4346 49.8548 41.9642 49.2671C42.4175 49.2263 42.8886 49.2144 43.3771 49.2375C43.0572 48.3391 42.7507 47.3637 42.4763 46.3146C42.3132 45.6913 42.1732 45.0865 42.0527 44.5031C40.2282 45.3985 37.13 47.2094 34.3159 50.563V50.563Z" fill="#CC5520"/>
<path d="M28.7075 43.848C27.9562 47.2062 27.4458 51.3555 27.8009 56.0564C27.8921 57.2628 28.0332 58.4122 28.2097 59.5008C28.4902 58.4931 28.8095 57.4465 29.1734 56.367C29.6699 54.8943 30.1965 53.5178 30.7326 52.2404C30.0576 49.4429 29.3826 46.6453 28.7075 43.8479V43.848Z" fill="#CC5520"/>
<path d="M30.991 34.9516C29.0342 31.3893 27.0774 27.827 25.1205 24.2646C26.1177 26.0971 27.2767 27.1133 28.1007 27.6867C33.2174 31.2473 40.84 28.4723 44.7952 27.0277C46.7896 26.2993 48.3284 25.5344 49.2197 25.0631C47.0364 28.4917 44.8531 31.9203 42.6699 35.3489C41.3556 35.7555 39.3328 36.2147 36.843 36.1365C34.3069 36.0568 32.2854 35.4508 30.9909 34.9516H30.991Z" fill="#EA9127"/>
<path d="M33.9311 7.89783C34.1508 8.59859 34.4247 9.81169 34.2174 11.291C34.1485 11.7829 34.0178 12.9104 33.2684 14.0462C32.6813 14.9359 32.2277 15.2221 31.1589 16.2697C30.5417 16.8746 29.6984 17.7689 28.7885 18.9785C29.815 19.3758 31.0168 19.7356 32.379 19.9595C36.9927 20.7179 40.8393 19.4897 42.9255 18.6179C43.2102 18.2434 43.4948 17.8689 43.7796 17.4944C41.8134 16.4033 39.1949 14.629 36.7518 11.8257C35.5565 10.4543 34.6371 9.10491 33.9312 7.89777L33.9311 7.89783Z" fill="#EA9127"/>
<path d="M34.2389 43.622C31.9348 45.0706 29.1694 44.0296 28.7073 43.8477C28.6882 44.88 28.6892 45.9399 28.7136 47.0262C28.7833 50.1287 29.0347 53.0329 29.3975 55.7139C30.3679 52.912 31.7322 49.7541 33.6778 46.4676C34.4051 45.2391 35.1499 44.1005 35.8934 43.0488C35.7485 42.8746 35.6035 42.7003 35.4585 42.5261C35.1513 42.9101 34.7529 43.2988 34.2389 43.622Z" fill="#EA9127"/>
<path d="M29.6918 59.2323C30.3323 57.1918 31.6842 53.7958 34.5778 50.4235C37.2834 47.2705 40.1977 45.4654 42.0527 44.5034C41.8174 43.317 41.6255 41.9916 41.5263 40.5446C41.4748 39.7932 41.4528 39.0744 41.453 38.3918C39.6209 40.2939 37.6017 42.703 35.689 45.6739C32.419 50.7528 30.6689 55.5966 29.6918 59.2322V59.2323Z" fill="#EA9127"/>
<path d="M25.1609 0C24.8469 0.539762 24.5229 1.18523 24.2386 1.9343C23.7773 3.14958 23.5652 4.25685 23.4672 5.13482C23.5143 4.87496 23.7743 3.58806 24.8881 2.92785C26.1582 2.17506 28.0371 2.53461 29.2801 3.95035C28.6743 3.10858 27.8482 2.13349 26.7425 1.1878C26.1974 0.721519 25.6627 0.329367 25.1609 0L25.1609 0Z" fill="#903518"/>
<path d="M50.4231 0.892517C50.7059 1.44368 50.9951 2.11228 51.2305 2.89217C51.6177 4.17549 51.7269 5.32209 51.7386 6.19429C51.7194 5.9675 51.5785 4.56296 50.4448 3.79173C49.2252 2.96206 47.345 3.19693 46.0485 4.51344C46.6631 3.75752 47.5086 2.87077 48.6354 2.03085C49.2617 1.56406 49.8685 1.191 50.4232 0.892517H50.4231Z" fill="#903518"/>
<path d="M42.6697 35.349C44.3082 32.776 45.9466 30.2029 47.5851 27.6299C46.1339 29.2212 43.1664 32.0311 38.5258 33.6785C35.5164 34.7469 32.8354 34.9599 30.9907 34.9517C32.3669 35.479 34.5495 36.1226 37.2838 36.1412C39.5346 36.1566 41.3878 35.7432 42.6697 35.349Z" fill="#CC5520"/>
</svg>
