<svg width="122" height="22" viewBox="0 0 122 22" fill="none" xmlns="http://www.w3.org/2000/svg">
<path d="M5.73101 11.536V20.8214H1.52049V11.536H0V8.27205H1.52049V5.796C1.52049 4.3893 1.66677 2.78551 2.98248 1.43506C3.8304 0.562445 5.02925 0 6.63753 0C7.57312 0 8.33325 0.168735 9.03524 0.421834V3.96723C8.56744 3.68577 7.95324 3.48892 7.42684 3.48892C6.7837 3.48892 6.37427 3.77037 6.1988 3.99535C5.73101 4.58639 5.73101 5.57114 5.73101 6.16182V8.27216H9.06442V11.5361H5.73101V11.536Z" fill="#CC5520"/>
<path d="M21.1284 19.2166C20.1456 20.3421 18.4749 21.2428 16.3371 21.2428C14.1996 21.2428 12.5287 20.3422 11.5459 19.2166C10.4404 17.9503 9.89966 16.1495 9.89966 14.5461C9.89966 12.9422 10.4404 11.1414 11.5459 9.87511C12.5287 8.74963 14.1996 7.84937 16.3371 7.84937C18.4749 7.84937 20.1456 8.74951 21.1284 9.87511C22.2342 11.1414 22.7746 12.9423 22.7746 14.5461C22.7746 16.1496 22.2342 17.9504 21.1284 19.2166ZM14.3471 12.1823C13.8311 12.7732 13.5363 13.5328 13.5363 14.546C13.5363 15.6996 13.9293 16.431 14.3471 16.9093C14.7892 17.4157 15.4281 17.8098 16.3617 17.8098C17.1481 17.8098 17.8115 17.5002 18.3276 16.9093C18.8433 16.3183 19.1383 15.5588 19.1383 14.546C19.1383 13.5328 18.8433 12.7732 18.3276 12.1823C17.8115 11.5916 17.1481 11.2822 16.3373 11.2822C15.5264 11.2822 14.863 11.5916 14.3472 12.1823H14.3471Z" fill="#CC5520"/>
<path d="M28.7701 13.984L24.4211 8.27197H28.9421L30.9815 11.1702L33.0208 8.27197H37.5418L33.1929 13.984L38.5491 20.8213H33.9789L30.9815 16.7695L27.9839 20.8213H23.4138L28.7701 13.984Z" fill="#CC5520"/>
<path d="M39.9741 8.27223H43.5121V9.73541C44.4212 8.15998 45.748 7.96265 46.5834 7.96265C47.0504 7.96265 47.9104 8.01913 48.6474 8.52568C49.2125 8.89139 49.6794 9.51054 49.9741 10.2703C50.2445 9.76352 50.6622 9.17284 51.3748 8.66629C52.1365 8.1315 52.849 7.96265 53.7089 7.96265C55.0359 7.96265 56.1168 8.41295 56.7803 9.14484C57.8368 10.2984 57.9106 11.9865 57.9106 12.8871V20.8215H54.3724V14.4625C54.3724 13.8154 54.3724 12.6898 53.9054 12.0145C53.6106 11.5926 53.144 11.3392 52.6279 11.3392C52.0382 11.3392 51.5466 11.6488 51.2519 12.0991C50.785 12.7744 50.7113 13.7591 50.7113 14.5751V20.8214H47.1734V14.2936C47.1734 13.4494 47.1488 12.4646 46.6082 11.8455C46.2397 11.4237 45.7974 11.3391 45.4289 11.3391C44.9619 11.3391 44.5444 11.4799 44.2004 11.8455C43.5369 12.5773 43.5123 13.984 43.5123 14.4062V20.8214H39.9744V8.27211L39.9741 8.27223Z" fill="#CC5520"/>
<path d="M62.7025 0.562134C63.8574 0.562134 64.7665 1.60348 64.7665 2.92593C64.7665 4.24826 63.8574 5.28925 62.7025 5.28925C61.5477 5.28925 60.6387 4.24826 60.6387 2.92593C60.6387 1.60348 61.5477 0.562134 62.7025 0.562134ZM64.7665 8.5129V21.0622L60.9336 20.821V8.27173L64.7665 8.5129Z" fill="#CC5520"/>
<path d="M67.4683 8.27142H71.0062V9.76272C72.0875 8.18717 73.3652 7.93372 74.3969 7.93372C75.3552 7.93372 76.6084 8.13069 77.5419 9.20004C78.574 10.3818 78.6475 11.8729 78.6475 12.8863V20.8207H75.1096V14.3776C75.1096 13.5616 75.0852 12.5202 74.5199 11.8731C74.2496 11.5635 73.8073 11.3104 73.1687 11.3104C72.4313 11.3104 71.9644 11.6481 71.6943 11.9857C71.1044 12.6611 71.0062 13.5616 71.0062 14.3776V20.8207H67.4683V8.27142Z" fill="#CC5520"/>
<path d="M93.3409 20.8215H89.8029V19.3022C89.2625 20.2023 88.2795 21.2437 86.3388 21.2437C84.7168 21.2437 83.5377 20.6526 82.5794 19.527C81.4492 18.2326 80.8596 16.4319 80.8596 14.4903C80.8596 12.4085 81.5227 10.6918 82.5794 9.53823C83.5377 8.49723 84.889 7.85008 86.388 7.85008C87.5918 7.85008 88.9186 8.30038 89.803 9.67896V0.309326H93.341V20.8212L93.3409 20.8215ZM85.3557 12.1834C84.8397 12.7463 84.4958 13.5623 84.4958 14.5752C84.4958 15.5038 84.8397 16.3193 85.3557 16.8824C85.8962 17.4734 86.5844 17.7545 87.1987 17.7545C87.8617 17.7545 88.6481 17.4449 89.2133 16.8262C89.6311 16.3759 90.0241 15.6161 90.0241 14.5753C90.0241 13.5058 89.6555 12.7744 89.2376 12.268C88.6728 11.5927 88.0094 11.3393 87.2478 11.3393C86.5352 11.3393 85.9209 11.5643 85.3557 12.1835V12.1834Z" fill="#CC5520"/>
<path d="M107.52 15.2496H99.3376C99.3376 15.9249 99.5585 16.8254 100.001 17.3881C100.542 18.0634 101.279 18.176 101.819 18.176C102.335 18.176 102.876 18.0632 103.244 17.8101C103.294 17.7817 103.711 17.4726 104.006 16.7688L107.348 17.163C106.856 18.9353 105.873 19.8639 105.235 20.3143C104.178 21.0456 102.999 21.2429 101.77 21.2429C100.124 21.2429 98.6742 20.9052 97.3966 19.4421C96.4383 18.3446 95.7505 16.6846 95.7505 14.6022C95.7505 12.8015 96.3153 10.9446 97.4213 9.65012C98.7477 8.13058 100.394 7.84937 101.623 7.84937C102.851 7.84937 104.62 8.10246 105.972 9.73437C107.274 11.3102 107.52 13.2798 107.52 14.8271V15.2494V15.2496ZM104.252 12.8297C104.227 12.717 104.055 11.9295 103.539 11.3665C103.146 10.9447 102.581 10.6632 101.868 10.6632C100.959 10.6632 100.418 11.0854 100.075 11.4792C99.8046 11.8168 99.5586 12.267 99.4602 12.8297H104.252Z" fill="white"/>
<path d="M121.672 20.8215H118.134V19.3022C117.593 20.2023 116.61 21.2437 114.67 21.2437C113.048 21.2437 111.869 20.6526 110.91 19.527C109.78 18.2326 109.19 16.4319 109.19 14.4903C109.19 12.4085 109.853 10.6918 110.91 9.53823C111.869 8.49723 113.22 7.85008 114.719 7.85008C115.923 7.85008 117.249 8.30038 118.134 9.67896V0.309326H121.672V20.8212L121.672 20.8215ZM113.687 12.1834C113.171 12.7463 112.827 13.5623 112.827 14.5752C112.827 15.5038 113.171 16.3193 113.687 16.8824C114.227 17.4734 114.915 17.7545 115.529 17.7545C116.192 17.7545 116.979 17.4449 117.544 16.8262C117.962 16.3759 118.355 15.6161 118.355 14.5753C118.355 13.5058 117.986 12.7744 117.568 12.268C117.004 11.5927 116.34 11.3393 115.579 11.3393C114.866 11.3393 114.252 11.5643 113.687 12.1835V12.1834Z" fill="white"/>
</svg>
