<svg width="23" height="23" viewBox="0 0 23 23" fill="none" xmlns="http://www.w3.org/2000/svg">
<g clip-path="url(#clip0_1_93)">
<path d="M22.8984 4.92064C22.7624 4.69944 22.5136 4.57407 22.2546 4.59653L21.1077 4.69643L22.2039 2.48659C22.3345 2.22339 22.2829 1.90629 22.0757 1.69798C21.8685 1.48968 21.5517 1.43658 21.2878 1.56578L18.3865 2.9867C16.5939 2.04038 14.3544 2.32128 12.8134 3.72504C11.5273 4.89661 10.8513 6.69829 10.9773 8.49499C7.61588 8.15808 4.77052 6.23402 3.08802 3.12515C2.97639 2.91892 2.76709 2.78402 2.53319 2.76744C2.29883 2.75113 2.07305 2.85499 1.93352 3.04353C0.889985 4.45327 0.816763 6.38617 1.63484 7.97637C1.40933 7.91941 1.16935 7.84232 0.903237 7.75342C0.675258 7.67719 0.42392 7.72602 0.240953 7.88199C0.0579856 8.03795 -0.0299716 8.27833 0.00915546 8.51556C0.332863 10.4781 1.47729 11.9864 3.28513 12.8792C3.04974 12.9612 2.80955 13.0278 2.5653 13.0786C2.32264 13.1292 2.12615 13.3068 2.05135 13.5431C1.97656 13.7794 2.03505 14.0377 2.2044 14.2187C3.50629 15.6103 5.3869 16.2952 6.7227 16.6238C5.20389 17.8132 3.56437 18.0122 1.18198 17.9304C0.906202 17.922 0.652124 18.0774 0.53618 18.3274C0.420281 18.5774 0.465248 18.8725 0.650461 19.0767C1.6436 20.1714 5.26188 21.4058 9.06551 21.4983C9.21596 21.502 9.36941 21.5039 9.5261 21.5039C12.1968 21.5039 15.7263 20.9314 18.2598 18.3979C20.1774 16.4804 21.3768 14.2729 21.8246 11.837C22.1863 9.86951 21.9577 8.29401 21.8479 7.53681C21.8398 7.48115 21.8312 7.42207 21.8242 7.37041L22.8969 5.64137C23.0338 5.4208 23.0344 5.14184 22.8984 4.92064ZM20.4903 7.73374C20.6938 9.13639 21.3131 13.4047 17.2898 17.4279C14.9512 19.7665 11.5448 20.1865 9.09884 20.127C7.01173 20.0763 5.14486 19.6771 3.79181 19.2219C4.34116 19.1545 4.83072 19.0505 5.29283 18.9069C6.56677 18.5109 7.64301 17.7984 8.67972 16.6646C8.85254 16.4756 8.90564 16.2062 8.81754 15.9658C8.72945 15.7254 8.51472 15.554 8.26074 15.5215C7.60672 15.4377 5.64156 15.1069 4.09409 14.0394C4.54003 13.8571 4.97011 13.6288 5.38079 13.3564C5.60607 13.2069 5.7226 12.9391 5.67822 12.6724C5.63388 12.4057 5.43708 12.1899 5.17554 12.1213C3.90897 11.7893 2.38036 11.0462 1.67549 9.38759C2.12561 9.46647 2.61503 9.48556 3.13703 9.36854C3.37898 9.31437 3.57286 9.13378 3.64402 8.89623C3.71522 8.65869 3.65269 8.40119 3.48045 8.22285C2.6034 7.31444 2.27542 6.00533 2.55681 4.88511C3.47834 6.23191 4.64582 7.36538 5.98342 8.2034C7.69454 9.27547 9.69168 9.86794 11.759 9.91659C11.9694 9.92104 12.1712 9.82922 12.3052 9.66624C12.439 9.50331 12.4905 9.28782 12.4447 9.08194C12.089 7.48294 12.5963 5.77834 13.7372 4.73916C14.9204 3.66125 16.6692 3.49774 17.9898 4.34178C18.1914 4.47066 18.4458 4.48508 18.6608 4.37978L20.0777 3.68583L19.3361 5.18087C19.2259 5.40301 19.2442 5.66733 19.3839 5.87213C19.5236 6.07693 19.7626 6.19063 20.01 6.16893L21.0092 6.08192L20.5489 6.8238C20.3944 7.07281 20.4265 7.29373 20.4903 7.73374Z" fill="white"/>
</g>
<defs>
<clipPath id="clip0_1_93">
<rect width="23" height="23" fill="white"/>
</clipPath>
</defs>
</svg>
