<svg width="28" height="28" viewBox="0 0 28 28" fill="none" xmlns="http://www.w3.org/2000/svg">
<path d="M22.75 3.5H5.25C4.28203 3.5 3.5 4.28203 3.5 5.25V22.75C3.5 23.718 4.28203 24.5 5.25 24.5H22.75C23.718 24.5 24.5 23.718 24.5 22.75V5.25C24.5 4.28203 23.718 3.5 22.75 3.5ZM22.9688 22.5312C22.9688 22.7719 22.7719 22.9688 22.5312 22.9688H5.46875C5.22812 22.9688 5.03125 22.7719 5.03125 22.5312V5.46875C5.03125 5.22812 5.22812 5.03125 5.46875 5.03125H22.5312C22.7719 5.03125 22.9688 5.22812 22.9688 5.46875V22.5312Z" fill="white"/>
<path d="M19.8845 10.5491L18.922 9.55929C18.8837 9.51554 18.8235 9.49366 18.7688 9.49366C18.7087 9.49366 18.654 9.51554 18.6157 9.55929L11.9438 16.2804L9.51572 13.8523C9.47197 13.8085 9.41728 13.7866 9.3626 13.7866C9.30791 13.7866 9.25322 13.8085 9.20947 13.8523L8.23604 14.8257C8.14854 14.9132 8.14854 15.0499 8.23604 15.1374L11.2985 18.1999C11.4954 18.3968 11.736 18.5116 11.9384 18.5116C12.2282 18.5116 12.4798 18.2984 12.5728 18.2109H12.5782L19.8899 10.8609C19.9665 10.7679 19.9665 10.6312 19.8845 10.5491Z" fill="white"/>
</svg>
