<svg width="28" height="28" viewBox="0 0 28 28" fill="none" xmlns="http://www.w3.org/2000/svg">
<path d="M14 2.625C7.71641 2.625 2.625 7.71641 2.625 14C2.625 20.2836 7.71641 25.375 14 25.375C20.2836 25.375 25.375 20.2836 25.375 14C25.375 7.71641 20.2836 2.625 14 2.625ZM16.882 18.118L14 15.2359L11.118 18.118C10.7789 18.457 10.2211 18.457 9.88203 18.118C9.7125 17.9484 9.625 17.7242 9.625 17.5C9.625 17.2758 9.7125 17.0516 9.88203 16.882L12.7641 14L9.88203 11.118C9.7125 10.9484 9.625 10.7242 9.625 10.5C9.625 10.2758 9.7125 10.0516 9.88203 9.88203C10.2211 9.54297 10.7789 9.54297 11.118 9.88203L14 12.7641L16.882 9.88203C17.2211 9.54297 17.7789 9.54297 18.118 9.88203C18.457 10.2211 18.457 10.7789 18.118 11.118L15.2359 14L18.118 16.882C18.457 17.2211 18.457 17.7789 18.118 18.118C17.7789 18.4625 17.2211 18.4625 16.882 18.118Z" fill="#949494"/>
</svg>
