<svg width="168" height="31" viewBox="0 0 168 31" fill="none" xmlns="http://www.w3.org/2000/svg">
<path d="M168 0H130V31H168V0Z" fill="#FF3D00"/>
<path d="M8.54834 16.8902V29.5828H2.79278V16.8902H0.714355V12.4285H2.79278V9.04392C2.79278 7.12104 2.99274 4.92874 4.79125 3.08274C5.95031 1.88993 7.58908 1.12109 9.78751 1.12109C11.0664 1.12109 12.1055 1.35175 13.065 1.69772V6.54408C12.4256 6.15935 11.586 5.89026 10.8665 5.89026C9.98731 5.89026 9.42764 6.27499 9.18779 6.58252C8.54834 7.39044 8.54834 8.73655 8.54834 9.54398V12.4287H13.1049V16.8903H8.54834V16.8902Z" fill="#ABABAB"/>
<path d="M29.5958 27.3904C28.2523 28.9289 25.9686 30.1601 23.0464 30.1601C20.1245 30.1601 17.8405 28.929 16.497 27.3904C14.9858 25.6594 14.2467 23.1979 14.2467 21.006C14.2467 18.8136 14.9858 16.3521 16.497 14.6211C17.8405 13.0826 20.1245 11.852 23.0464 11.852C25.9686 11.852 28.2523 13.0824 29.5958 14.6211C31.1073 16.3521 31.8461 18.8138 31.8461 21.006C31.8461 23.198 31.1073 25.6596 29.5958 27.3904ZM20.3261 17.7749C19.6207 18.5826 19.2177 19.6209 19.2177 21.0059C19.2177 22.5828 19.7549 23.5826 20.3261 24.2364C20.9305 24.9287 21.8038 25.4674 23.08 25.4674C24.1549 25.4674 25.0618 25.0442 25.7672 24.2364C26.4722 23.4285 26.8753 22.3904 26.8753 21.0059C26.8753 19.6209 26.4722 18.5826 25.7672 17.7749C25.0618 16.9674 24.1549 16.5444 23.0465 16.5444C21.9382 16.5444 21.0313 16.9674 20.3262 17.7749H20.3261Z" fill="#ABABAB"/>
<path d="M40.0417 20.2375L34.0969 12.4295H40.2767L43.0645 16.3912L45.8522 12.4295H52.0321L46.0874 20.2375L53.409 29.5837H47.1618L43.0645 24.0451L38.967 29.5837H32.7199L40.0417 20.2375Z" fill="#ABABAB"/>
<path d="M55.3566 12.4283H60.1928V14.4284C61.4355 12.2749 63.2492 12.0052 64.3912 12.0052C65.0295 12.0052 66.205 12.0824 67.2126 12.7748C67.985 13.2747 68.6233 14.121 69.0261 15.1596C69.3957 14.4669 69.9666 13.6594 70.9408 12.967C71.9819 12.236 72.9559 12.0052 74.1314 12.0052C75.9453 12.0052 77.4228 12.6207 78.3298 13.6211C79.7739 15.1981 79.8748 17.5055 79.8748 18.7366V29.5826H75.0383V20.8901C75.0383 20.0055 75.0383 18.4669 74.4 17.5438C73.997 16.9672 73.3592 16.6207 72.6537 16.6207C71.8475 16.6207 71.1756 17.0439 70.7728 17.6594C70.1345 18.5825 70.0338 19.9286 70.0338 21.0441V29.5824H65.1976V20.6592C65.1976 19.5053 65.164 18.159 64.4251 17.3128C63.9213 16.7362 63.3168 16.6206 62.813 16.6206C62.1747 16.6206 61.604 16.8131 61.1337 17.3128C60.2267 18.3131 60.1931 20.236 60.1931 20.8131V29.5824H55.357V12.4282L55.3566 12.4283Z" fill="#ABABAB"/>
<path d="M86.4252 1.88857C88.0038 1.88857 89.2466 3.31203 89.2466 5.11974C89.2466 6.9273 88.0038 8.35028 86.4252 8.35028C84.8466 8.35028 83.6041 6.9273 83.6041 5.11974C83.6041 3.31203 84.8466 1.88857 86.4252 1.88857ZM89.2466 12.7568V29.9111L84.0072 29.5814V12.4272L89.2466 12.7568Z" fill="#ABABAB"/>
<path d="M92.9398 12.427H97.7759V14.4655C99.254 12.3118 101.001 11.9653 102.411 11.9653C103.721 11.9653 105.434 12.2346 106.71 13.6963C108.121 15.3117 108.221 17.35 108.221 18.7352V29.5812H103.385V20.7737C103.385 19.6583 103.352 18.2348 102.579 17.3502C102.209 16.927 101.605 16.581 100.732 16.581C99.724 16.581 99.0857 17.0427 98.7165 17.5041C97.9102 18.4274 97.7759 19.6583 97.7759 20.7737V29.5812H92.9398V12.427V12.427Z" fill="#ABABAB"/>
<path d="M128.307 29.5844H123.47V27.5076C122.732 28.7381 121.388 30.1615 118.735 30.1615C116.518 30.1615 114.906 29.3536 113.596 27.815C112.051 26.0456 111.245 23.5842 111.245 20.9301C111.245 18.0843 112.152 15.7377 113.596 14.1608C114.906 12.7379 116.753 11.8532 118.802 11.8532C120.448 11.8532 122.262 12.4688 123.471 14.3532V1.54543H128.307V29.5841L128.307 29.5844ZM117.391 17.7766C116.686 18.5461 116.216 19.6615 116.216 21.0461C116.216 22.3154 116.686 23.4302 117.391 24.1999C118.13 25.0078 119.071 25.392 119.911 25.392C120.817 25.392 121.892 24.9689 122.665 24.1231C123.236 23.5076 123.773 22.469 123.773 21.0462C123.773 19.5843 123.269 18.5845 122.698 17.8923C121.926 16.9692 121.019 16.6229 119.978 16.6229C119.004 16.6229 118.164 16.9304 117.391 17.7768V17.7766Z" fill="#ABABAB"/>
<path d="M147.688 21.9677H136.504C136.504 22.8908 136.806 24.1217 137.411 24.8909C138.149 25.814 139.157 25.9679 139.896 25.9679C140.601 25.9679 141.34 25.8138 141.844 25.4678C141.911 25.4289 142.482 25.0064 142.885 24.0444L147.453 24.5832C146.781 27.0058 145.438 28.2752 144.565 28.8909C143.12 29.8905 141.508 30.1603 139.829 30.1603C137.578 30.1603 135.597 29.6987 133.85 27.6986C132.54 26.1984 131.6 23.9292 131.6 21.0828C131.6 18.6212 132.372 16.0829 133.884 14.3135C135.697 12.2364 137.948 11.852 139.627 11.852C141.307 11.852 143.725 12.1979 145.572 14.4287C147.352 16.5827 147.688 19.275 147.688 21.3901V21.9674V21.9677ZM143.221 18.6598C143.187 18.5057 142.952 17.4294 142.247 16.6597C141.71 16.0831 140.937 15.6984 139.963 15.6984C138.72 15.6984 137.981 16.2755 137.511 16.8138C137.142 17.2753 136.806 17.8907 136.671 18.6598H143.221V18.6598Z" fill="white"/>
<path d="M167.033 29.5844H162.197V27.5076C161.458 28.7381 160.114 30.1615 157.462 30.1615C155.244 30.1615 153.633 29.3536 152.323 27.815C150.778 26.0456 149.972 23.5842 149.972 20.9301C149.972 18.0843 150.878 15.7377 152.323 14.1608C153.633 12.7379 155.48 11.8532 157.529 11.8532C159.174 11.8532 160.988 12.4688 162.197 14.3532V1.54543H167.033V29.5841L167.033 29.5844ZM156.118 17.7766C155.412 18.5461 154.942 19.6615 154.942 21.0461C154.942 22.3154 155.412 23.4302 156.118 24.1999C156.857 25.0078 157.797 25.392 158.637 25.392C159.543 25.392 160.618 24.9689 161.391 24.1231C161.962 23.5076 162.499 22.469 162.499 21.0462C162.499 19.5843 161.995 18.5845 161.424 17.8923C160.652 16.9692 159.745 16.6229 158.704 16.6229C157.73 16.6229 156.89 16.9304 156.118 17.7768V17.7766Z" fill="white"/>
</svg>
