<svg width="24" height="24" viewBox="0 0 24 24" fill="none" xmlns="http://www.w3.org/2000/svg">
<path d="M12 0.625C5.71641 0.625 0.625 5.71641 0.625 12C0.625 18.2836 5.71641 23.375 12 23.375C18.2836 23.375 23.375 18.2836 23.375 12C23.375 5.71641 18.2836 0.625 12 0.625ZM14.882 16.118L12 13.2359L9.11797 16.118C8.77891 16.457 8.22109 16.457 7.88203 16.118C7.7125 15.9484 7.625 15.7242 7.625 15.5C7.625 15.2758 7.7125 15.0516 7.88203 14.882L10.7641 12L7.88203 9.11797C7.7125 8.94844 7.625 8.72422 7.625 8.5C7.625 8.27578 7.7125 8.05156 7.88203 7.88203C8.22109 7.54297 8.77891 7.54297 9.11797 7.88203L12 10.7641L14.882 7.88203C15.2211 7.54297 15.7789 7.54297 16.118 7.88203C16.457 8.22109 16.457 8.77891 16.118 9.11797L13.2359 12L16.118 14.882C16.457 15.2211 16.457 15.7789 16.118 16.118C15.7789 16.4625 15.2211 16.4625 14.882 16.118Z" fill="#FF0000"/>
</svg>
