<svg width="121" height="23" viewBox="0 0 121 23" fill="none" xmlns="http://www.w3.org/2000/svg">
<path d="M5.63782 11.9675V21.1019H1.49576V11.9675H0V8.75668H1.49576V6.3209C1.49576 4.93707 1.63967 3.35936 2.93399 2.03086C3.76812 1.17244 4.94748 0.619141 6.5296 0.619141C7.44998 0.619141 8.19775 0.785132 8.88832 1.03412V4.52186C8.42813 4.24498 7.82392 4.05133 7.30608 4.05133C6.67339 4.05133 6.27062 4.32821 6.09801 4.54953C5.63782 5.13095 5.63782 6.09969 5.63782 6.68077V8.75679H8.91703V11.9677H5.63782V11.9675Z" fill="white"/>
<path d="M20.785 19.5217C19.8181 20.6288 18.1746 21.5149 16.0716 21.5149C13.9688 21.5149 12.3251 20.6289 11.3582 19.5217C10.2707 18.2759 9.73877 16.5044 9.73877 14.9271C9.73877 13.3492 10.2707 11.5778 11.3582 10.332C12.3251 9.22486 13.9688 8.33923 16.0716 8.33923C18.1746 8.33923 19.8181 9.22475 20.785 10.332C21.8727 11.5778 22.4044 13.3494 22.4044 14.9271C22.4044 16.5045 21.8727 18.276 20.785 19.5217ZM14.1139 12.6017C13.6063 13.183 13.3163 13.9302 13.3163 14.927C13.3163 16.0618 13.7029 16.7813 14.1139 17.2519C14.5489 17.75 15.1774 18.1377 16.0958 18.1377C16.8693 18.1377 17.522 17.8332 18.0296 17.2519C18.537 16.6704 18.8271 15.9234 18.8271 14.927C18.8271 13.9302 18.537 13.183 18.0296 12.6017C17.522 12.0206 16.8693 11.7162 16.0717 11.7162C15.2741 11.7162 14.6214 12.0206 14.114 12.6017H14.1139Z" fill="white"/>
<path d="M28.3024 14.3772L24.0241 8.75806H28.4716L30.4778 11.6092L32.484 8.75806H36.9314L32.6532 14.3772L37.9224 21.1033H33.4265L30.4778 17.1174L27.529 21.1033H23.0332L28.3024 14.3772Z" fill="white"/>
<path d="M39.3242 8.75523H42.8046V10.1946C43.699 8.64481 45.0042 8.45068 45.826 8.45068C46.2854 8.45068 47.1314 8.50625 47.8565 9.00457C48.4124 9.36433 48.8717 9.97341 49.1616 10.7208C49.4276 10.2223 49.8385 9.6412 50.5395 9.14288C51.2888 8.61679 51.9897 8.45068 52.8357 8.45068C54.1411 8.45068 55.2044 8.89367 55.8571 9.61365C56.8964 10.7485 56.969 12.4091 56.969 13.2951V21.1005H53.4884V14.8449C53.4884 14.2082 53.4884 13.1009 53.029 12.4366C52.739 12.0217 52.28 11.7723 51.7722 11.7723C51.1921 11.7723 50.7085 12.0769 50.4186 12.5199C49.9593 13.1842 49.8868 14.1529 49.8868 14.9556V21.1004H46.4064V14.6786C46.4064 13.8482 46.3822 12.8794 45.8505 12.2704C45.4879 11.8554 45.0528 11.7722 44.6903 11.7722C44.2309 11.7722 43.8202 11.9108 43.4817 12.2704C42.8291 12.9903 42.8049 14.3741 42.8049 14.7894V21.1004H39.3245V8.75512L39.3242 8.75523Z" fill="white"/>
<path d="M61.6831 1.17249C62.8192 1.17249 63.7135 2.1969 63.7135 3.49784C63.7135 4.79867 62.8192 5.82273 61.6831 5.82273C60.5471 5.82273 59.6528 4.79867 59.6528 3.49784C59.6528 2.1969 60.5471 1.17249 61.6831 1.17249ZM63.7135 8.99397V21.3392L59.943 21.102V8.75672L63.7135 8.99397Z" fill="white"/>
<path d="M66.3711 8.75604H69.8515V10.2231C70.9152 8.67316 72.1721 8.42383 73.1871 8.42383C74.1298 8.42383 75.3626 8.6176 76.2809 9.66956C77.2963 10.8321 77.3686 12.299 77.3686 13.2959V21.1013H73.8881V14.7629C73.8881 13.9602 73.8642 12.9358 73.3081 12.2991C73.0422 11.9946 72.6071 11.7456 71.9788 11.7456C71.2535 11.7456 70.7941 12.0778 70.5284 12.4099C69.9481 13.0743 69.8515 13.9602 69.8515 14.7629V21.1013H66.3711V8.75604Z" fill="white"/>
<path d="M91.8232 21.1013H88.3428V19.6067C87.8111 20.4922 86.8441 21.5167 84.935 21.5167C83.3394 21.5167 82.1795 20.9352 81.2368 19.8279C80.125 18.5545 79.5449 16.7832 79.5449 14.8731C79.5449 12.8251 80.1973 11.1364 81.2368 10.0016C82.1795 8.9775 83.5088 8.34087 84.9834 8.34087C86.1676 8.34087 87.4729 8.78385 88.3429 10.14V0.922729H91.8234V21.1011L91.8232 21.1013ZM83.9679 12.6037C83.4603 13.1575 83.1219 13.9602 83.1219 14.9566C83.1219 15.8701 83.4603 16.6724 83.9679 17.2263C84.4996 17.8077 85.1766 18.0842 85.7809 18.0842C86.4331 18.0842 87.2068 17.7797 87.7628 17.1711C88.1738 16.7281 88.5604 15.9807 88.5604 14.9567C88.5604 13.9046 88.1977 13.1851 87.7867 12.6869C87.2311 12.0226 86.5784 11.7734 85.8293 11.7734C85.1282 11.7734 84.5239 11.9947 83.9679 12.6038V12.6037Z" fill="white"/>
<path fill-rule="evenodd" clip-rule="evenodd" d="M121 0H93.4551V22.626H121V0ZM105.771 15.6187H97.7221C97.7221 16.283 97.9395 17.1688 98.3748 17.7223C98.9065 18.3867 99.6318 18.4974 100.164 18.4974C100.671 18.4974 101.203 18.3865 101.565 18.1375C101.614 18.1095 102.025 17.8055 102.315 17.1131L105.602 17.5009C105.119 19.2444 104.152 20.1579 103.523 20.601C102.484 21.3204 101.324 21.5145 100.115 21.5145C98.4955 21.5145 97.0696 21.1823 95.8127 19.7429C94.87 18.6633 94.1934 17.0303 94.1934 14.9818C94.1934 13.2103 94.749 11.3836 95.837 10.1102C97.1419 8.61537 98.7614 8.33873 99.9701 8.33873C101.179 8.33873 102.919 8.58771 104.248 10.1931C105.529 11.7432 105.771 13.6808 105.771 15.203V15.6184V15.6187ZM102.556 13.2381L102.556 13.2375C102.531 13.1245 102.362 12.3516 101.855 11.7987C101.469 11.3837 100.913 11.1068 100.212 11.1068C99.3174 11.1068 98.7854 11.5222 98.4471 11.9096C98.1815 12.2417 97.9395 12.6845 97.8428 13.2381H102.556ZM116.213 21.1009H119.693L119.693 21.1006V0.922256H116.213V10.1395C115.343 8.78338 114.037 8.3404 112.853 8.3404C111.379 8.3404 110.049 8.97703 109.107 10.0011C108.067 11.1359 107.415 12.8247 107.415 14.8727C107.415 16.7827 107.995 18.5541 109.107 19.8275C110.049 20.9348 111.209 21.5162 112.805 21.5162C114.714 21.5162 115.681 20.4918 116.213 19.6063V21.1009ZM110.992 14.9561C110.992 13.9597 111.33 13.157 111.838 12.6032V12.6033C112.394 11.9942 112.998 11.7729 113.699 11.7729C114.448 11.7729 115.101 12.0221 115.657 12.6864C116.068 13.1846 116.43 13.9042 116.43 14.9562C116.43 15.9802 116.044 16.7276 115.633 17.1706C115.077 17.7792 114.303 18.0838 113.651 18.0838C113.046 18.0838 112.369 17.8072 111.838 17.2258C111.33 16.6719 110.992 15.8696 110.992 14.9561Z" fill="white"/>
</svg>
